<svg xmlns="http://www.w3.org/2000/svg" viewBox="0 0 985.67 979.18">
    <defs>
        <style>
            .cls-1 {
                fill: #c2bacc;
            }

            .cls-2 {
                fill: #fff;
            }

            .cls-3 {
                fill: #2d2d2d;
            }

            .cls-4 {
                fill: #494949;
            }

            .cls-5 {
                fill: #353535;
            }

            .cls-6 {
                fill: #dfd9e4;
            }

            .cls-7 {
                fill: #9c93aa;
            }

            .cls-8 {
                fill: #2871E6;
            }

            .cls-9 {
                fill: #2871E6;
            }

            .cls-10 {
                fill: #2871E6;
            }

            .cls-11 {
                fill: #1e1e1e;
            }

            .cls-12 {
                fill: #bf8558;
            }

            .cls-13 {
                fill: #ce996a;
            }

            .cls-14 {
                fill: #e2af7d;
            }

            .cls-15 {
                fill: #606060;
            }
        </style>
    </defs>
    <g id="Layer_2" data-name="Layer 2">
        <g id="Layer_2-2" data-name="Layer 2">
            <path class="cls-1"
                d="M582.9,498.78,983.3,266.14c3.51-2,3.07-5.57-1-7.91L880.75,199.59c-4.06-2.34-10.19-2.59-13.7-.56L466.66,431.67c-3.51,2-3.07,5.56,1,7.9l101.57,58.64C573.26,500.55,579.39,500.8,582.9,498.78Z" />
            <path class="cls-2"
                d="M723.5,380.8a3,3,0,0,0-1.52-.39,5.23,5.23,0,0,0-2.57.78c-3.89,2.24-7,8.31-7,13.53,0,2.6.8,4.54,2.19,5.35a4.07,4.07,0,0,0,4.09-.4c3.89-2.24,7.05-8.31,7.05-13.53C725.69,383.55,724.89,381.6,723.5,380.8Z" />
            <path class="cls-2"
                d="M599,389.82a.69.69,0,0,0-.34-.09,1.49,1.49,0,0,0-.71.23L589.17,395a5.87,5.87,0,0,0-2.39,4.63,1.81,1.81,0,0,0,.58,1.58,1.16,1.16,0,0,0,1-.14L597.2,396a5.91,5.91,0,0,0,2.39-4.63A1.81,1.81,0,0,0,599,389.82Z" />
            <path class="cls-3"
                d="M602.84,442.9c3.86-9.91,10.33-18.24,17.29-22.26a17.27,17.27,0,0,1,8.33-2.54l-7.58-4.46a22.34,22.34,0,0,0-3.22,1.54c-9.61,5.55-18.14,18.66-21.23,32.63h0a.66.66,0,0,1-.25.4.08.08,0,0,1,0,0l0,.05-13,7.77c1.1,4.84,3.5,8.34,6.84,9.84a.74.74,0,0,1,.33.3l12.32,7.1c-2.09-3.25-3.24-7.72-3.24-13A48.8,48.8,0,0,1,602.84,442.9Z" />
            <path class="cls-2"
                d="M547.24,425.6c0-.45,0-.89,0-1.33L527.1,412.59l-4.43,26.05h0l-1,6.15a3.87,3.87,0,0,1-2.17,2.86,3.92,3.92,0,0,1-1.65.36,3.84,3.84,0,0,1-1.94-.52L478.6,425.94a10,10,0,0,1-5-8l-1.23-18.48c0-.7-.11-2.16-.19-4a.76.76,0,0,1,0-.61c-.21-5.12-.48-12.51-.54-14.34l-20.55-11.89c0,.17,0,.35,0,.52v41.62c0,2,.59,3.65,1.6,4.42a.5.5,0,0,1,.07.08l95,54.95a9.46,9.46,0,0,1-.48-3Zm-77.76-9a2.57,2.57,0,0,1-1.1,2.33,1.77,1.77,0,0,1-.91.24,2.43,2.43,0,0,1-1.2-.35l-10.44-6a5.69,5.69,0,0,1-2.45-4.61v-28a2.55,2.55,0,0,1,1.1-2.32,2.06,2.06,0,0,1,2.11.1L467,384a5.71,5.71,0,0,1,2.45,4.61ZM544,459.46a2.56,2.56,0,0,1-1.1,2.33,1.82,1.82,0,0,1-.91.24,2.43,2.43,0,0,1-1.2-.35l-10.45-6h0a5.72,5.72,0,0,1-2.45-4.61V423a2.55,2.55,0,0,1,1.1-2.33,2.11,2.11,0,0,1,2.11.1l10.45,6a5.73,5.73,0,0,1,2.45,4.61Z" />
            <path class="cls-2"
                d="M573.72,379.13l-6.83-3.94A1.11,1.11,0,0,0,566,375l-.12.06a1.83,1.83,0,0,0-.51,1.47v17.38a6.14,6.14,0,0,0,1.34,3.61h0a3.77,3.77,0,0,0,1,.87l6.83,3.94a1.11,1.11,0,0,0,1,.16l.08,0A1.79,1.79,0,0,0,576,401V383.62A5.7,5.7,0,0,0,573.72,379.13Z" />
            <polygon class="cls-2" points="577 451.19 587.46 445.16 587.46 438.12 577 444.16 577 451.19" />
            <polygon class="cls-4" points="458.63 346.55 546.23 397.22 563.63 332.48 476.04 281.81 458.63 346.55" />
            <path class="cls-5"
                d="M569,371.93a2.84,2.84,0,0,1,1.5.38l6.83,3.94a7.2,7.2,0,0,1,3.08,5.82v6.71l14.5-8.35c2.58-1.49,4.68-5.53,4.68-9v-48.7c0-1.68-.5-2.93-1.37-3.44a2.57,2.57,0,0,0-2.55.27l-15.89,9.18c-2,1.16-3.84,4.13-4.54,7.4-1.69,7.82-5.92,24.05-9.44,37.25l2.59-1.4A.77.77,0,0,1,569,371.93Z" />
            <path class="cls-6"
                d="M568.2,336.13c1.22-5.76,4.78-11.23,8.83-13.57l59.26-34.86a6.45,6.45,0,0,1,1.08-.49l-95.19-55-.07-.07H542a3.24,3.24,0,0,0-2.62.48L480.1,267.42c-3.71,2.14-7,7.2-8.12,12.61l-18.2,68.35a80.14,80.14,0,0,0-2.22,12.19l96.24,55.67a83,83,0,0,1,2.2-11.79Zm-1-13.57a.77.77,0,0,1,1-.28l.88.51a.76.76,0,0,1-.38,1.42.75.75,0,0,1-.38-.1l-.88-.51A.77.77,0,0,1,567.21,322.56Zm-5.31-3.07a.77.77,0,0,1,1-.28l1.77,1a.76.76,0,0,1,.28,1,.77.77,0,0,1-.66.38.75.75,0,0,1-.38-.1l-1.77-1A.76.76,0,0,1,561.9,319.49Zm-5.32-3.06a.77.77,0,0,1,1-.28l1.77,1a.76.76,0,0,1,.28,1,.77.77,0,0,1-.66.38.75.75,0,0,1-.38-.1l-1.78-1A.77.77,0,0,1,556.58,316.43Zm-5.31-3.07a.77.77,0,0,1,1-.28l1.77,1a.76.76,0,0,1-.38,1.42.75.75,0,0,1-.38-.1l-1.77-1A.76.76,0,0,1,551.27,313.36ZM546,310.29a.76.76,0,0,1,1-.28l1.77,1a.77.77,0,0,1-.38,1.43.76.76,0,0,1-.38-.11l-1.78-1A.76.76,0,0,1,546,310.29Zm-5.32-3.07a.75.75,0,0,1,1-.27l1.77,1a.76.76,0,0,1-.38,1.42.75.75,0,0,1-.38-.1l-1.77-1A.78.78,0,0,1,540.64,307.22Zm-5.31-3.06a.76.76,0,0,1,1-.28l1.77,1a.77.77,0,0,1,.28,1,.77.77,0,0,1-1,.28l-1.77-1A.76.76,0,0,1,535.33,304.16ZM530,301.09a.77.77,0,0,1,1-.28l1.77,1a.76.76,0,0,1,.28,1,.75.75,0,0,1-.66.39.76.76,0,0,1-.38-.11l-1.77-1A.76.76,0,0,1,530,301.09ZM524.7,298a.76.76,0,0,1,1-.28l1.77,1a.76.76,0,0,1,.28,1,.77.77,0,0,1-.66.38.75.75,0,0,1-.38-.1l-1.77-1A.76.76,0,0,1,524.7,298ZM519.38,295a.77.77,0,0,1,1-.28l1.77,1a.76.76,0,0,1-.39,1.42.75.75,0,0,1-.38-.1l-1.77-1A.77.77,0,0,1,519.38,295Zm-5.31-3.07a.76.76,0,0,1,1-.28l1.77,1a.76.76,0,0,1-.38,1.42.75.75,0,0,1-.38-.1l-1.77-1A.76.76,0,0,1,514.07,291.89Zm-5.31-3.07a.76.76,0,0,1,1-.28l1.77,1a.77.77,0,0,1-.38,1.43.76.76,0,0,1-.38-.11l-1.78-1A.76.76,0,0,1,508.76,288.82Zm-5.32-3.06a.75.75,0,0,1,1-.28l1.77,1a.76.76,0,0,1-.38,1.42.75.75,0,0,1-.38-.1l-1.77-1A.77.77,0,0,1,503.44,285.76Zm-5.31-3.07a.76.76,0,0,1,1-.28l1.77,1a.77.77,0,0,1,.28,1,.77.77,0,0,1-1,.28l-1.77-1A.76.76,0,0,1,498.13,282.69Zm-5.32-3.07a.77.77,0,0,1,1-.28l1.77,1a.77.77,0,0,1-.38,1.43.76.76,0,0,1-.38-.11l-1.77-1A.76.76,0,0,1,492.81,279.62Zm-5.31-3.07a.76.76,0,0,1,1-.28l1.77,1a.76.76,0,0,1,.28,1,.77.77,0,0,1-.66.38.75.75,0,0,1-.38-.1l-1.77-1A.76.76,0,0,1,487.5,276.55Zm-5.32-3.06a.76.76,0,0,1,1-.28l1.78,1a.76.76,0,0,1,.27,1,.77.77,0,0,1-1,.28l-1.77-1A.77.77,0,0,1,482.18,273.49Zm-4.42-2.56a.75.75,0,0,1,1-.27l.88.5a.76.76,0,1,1-.76,1.32L478,272A.77.77,0,0,1,477.76,270.93Zm69.68,127.64,0,.05a1.21,1.21,0,0,1,0,.14c0,.06-.09.09-.14.14s-.06.07-.1.1a.75.75,0,0,1-.41.14h0a.63.63,0,0,1-.19,0,.45.45,0,0,1-.12-.06h-.07l-89-51.46,0,0a.52.52,0,0,1-.11-.1.47.47,0,0,1-.1-.1l-.06-.13a.78.78,0,0,1-.05-.14.66.66,0,0,1,0-.14.92.92,0,0,1,0-.16s0,0,0,0l17.81-66.27a.35.35,0,0,1,.05-.08.38.38,0,0,1,0-.1l0,0a.44.44,0,0,1,.09-.11l.12-.1.1,0a.58.58,0,0,1,.17-.06h.34l.08,0a.29.29,0,0,1,.1,0l89,51.46,0,0,.12.1.09.11.06.13a.78.78,0,0,1,0,.14.61.61,0,0,1,0,.14.76.76,0,0,1,0,.15s0,0,0,.06Z" />
            <path class="cls-5"
                d="M563.82,380.81c-2,7.27-3.37,12.42-3.41,12.57-.39,2.26,0,4.17,1.11,4.92a2.49,2.49,0,0,0,2.67-.19l.74-.42a7.5,7.5,0,0,1-1.11-3.75Z" />
            <path class="cls-6"
                d="M576.57,377.57l-6.83-3.94a1.26,1.26,0,0,0-.82-.21l-1,.57,6.62,3.82a7.22,7.22,0,0,1,3.08,5.81V401c0,.12,0,.23,0,.34l.5-.28a1.64,1.64,0,0,0,.85-1.62V382.07A5.75,5.75,0,0,0,576.57,377.57Z" />
            <path class="cls-1"
                d="M605.62,424.29V307.51L577.8,323.88c-3.71,2.13-7,7.2-8.12,12.61l-18.2,68.35a80.81,80.81,0,0,0-2.72,20.76v41.62c0,2.24.68,3.91,1.87,4.6a3.42,3.42,0,0,0,3.49-.35l23.24-13.74,4.44-2.65h0L595,447.16A60.78,60.78,0,0,1,605.62,424.29Zm-31.9-20.6-6.83-3.94a5,5,0,0,1-1-.84l-.9.52a4.83,4.83,0,0,1-2.4.72,3.28,3.28,0,0,1-1.91-.6c-1.59-1.11-2.24-3.54-1.73-6.5.14-.5,11.76-43,14.83-57.24.8-3.72,2.87-7,5.26-8.4l15.9-9.18A4,4,0,0,1,599,318c1.36.79,2.13,2.52,2.13,4.76v48.7c0,4-2.39,8.57-5.44,10.33l-15.26,8.79v8.9a3.05,3.05,0,0,1-1.18,2.62.83.83,0,0,1-.24.21l-.12.07,0,0,0,0-2.48,1.4,0,0-.09,0,0,0h-.05a2.11,2.11,0,0,1-.89.21A2.9,2.9,0,0,1,573.72,403.69ZM589,445.6a.76.76,0,0,1-.38.66l-12,6.92a.77.77,0,0,1-.76,0,.76.76,0,0,1-.38-.67v-8.79a.76.76,0,0,1,.38-.66l12-6.92a.79.79,0,0,1,.76,0,.76.76,0,0,1,.38.66Zm-1.29-42.74a2.2,2.2,0,0,1-1.09-.29,3.19,3.19,0,0,1-1.34-2.9,7.35,7.35,0,0,1,3.15-5.95l8.79-5.08a2.5,2.5,0,0,1,2.57-.14,3.19,3.19,0,0,1,1.34,2.9,7.35,7.35,0,0,1-3.15,6l-8.79,5.08A3,3,0,0,1,587.69,402.86Z" />
            <path class="cls-3"
                d="M718.64,362.57a16.94,16.94,0,0,1,8.76-2.52l-3.06-1.74L681.91,382.8c-.15.72-.28,1.44-.4,2.15l5.11,2.9a.78.78,0,0,1,.32.4c4.46,2.85,7,8.94,7,16.87a42.61,42.61,0,0,1-.41,5.7l7.51,4.37c-2.07-3.24-3.21-7.7-3.21-13C697.86,387,707.18,369.19,718.64,362.57Z" />
            <path class="cls-5"
                d="M685.77,389.28a9.62,9.62,0,0,0-4.86-1.26,15.6,15.6,0,0,0-7.73,2.34c-11,6.37-20,23.56-20,38.32,0,7.62,2.43,13.39,6.67,15.84,3.46,2,7.93,1.61,12.59-1.08,11-6.37,20-23.56,20-38.32C692.44,397.5,690,391.73,685.77,389.28Zm-12.59,46.3a11.66,11.66,0,0,1-5.75,1.72,7.56,7.56,0,0,1-3.85-1c-3.21-1.85-5.05-6.08-5.05-11.59,0-10.17,6.23-22.05,13.89-26.48,3.5-2,6.91-2.27,9.61-.71,3.21,1.85,5.05,6.08,5.05,11.59C687.08,419.28,680.85,431.16,673.18,435.58Z" />
            <path class="cls-2"
                d="M629,430.43a6.17,6.17,0,0,0-3.1-.8,10.14,10.14,0,0,0-5,1.52c-7.24,4.18-13.13,15.47-13.13,25.16,0,4.95,1.57,8.69,4.29,10.27,2.21,1.27,5.08,1,8.08-.72,7.24-4.18,13.14-15.46,13.14-25.16C633.27,435.75,631.7,432,629,430.43Zm-8.47,2.35c.78-.44,1.4,0,1.4,1.06a3.33,3.33,0,0,1-1.4,2.67c-.77.44-1.39,0-1.39-1.06A3.35,3.35,0,0,1,620.51,432.78Zm-8.33,9.42c.54-1,1.43-1.55,2-1.14s.55,1.59,0,2.64-1.43,1.55-2,1.14S611.63,443.24,612.18,442.2Zm-2.06,14.17c-.77.44-1.4,0-1.4-1.06a3.36,3.36,0,0,1,1.4-2.67c.77-.44,1.4,0,1.4,1.06A3.36,3.36,0,0,1,610.12,456.37Zm4,6.92c-.54,1-1.43,1.56-2,1.14s-.55-1.59,0-2.63,1.43-1.55,2-1.14S614.7,462.25,614.15,463.29Zm6.36.94c-.77.44-1.39,0-1.39-1.06a3.35,3.35,0,0,1,1.39-2.67c.78-.44,1.4,0,1.4,1.06A3.33,3.33,0,0,1,620.51,464.23Zm.38-5.16a6.69,6.69,0,0,1-3.33,1,4.55,4.55,0,0,1-2.29-.6c-1.87-1.08-2.94-3.51-2.94-6.67,0-5.7,3.5-12.36,7.8-14.85,2-1.17,4-1.3,5.62-.39,1.88,1.08,3,3.51,3,6.67C628.7,449.92,625.2,456.58,620.89,459.07Zm8-4.26c-.54,1-1.43,1.55-2,1.14s-.55-1.59,0-2.64,1.43-1.55,2-1.14S629.4,453.77,628.85,454.81Zm0-19.6c-.54,1-1.43,1.55-2,1.14s-.55-1.59,0-2.63,1.43-1.56,2-1.14S629.4,434.17,628.85,435.21Zm2.06,5.43c.77-.44,1.39,0,1.39,1.06a3.35,3.35,0,0,1-1.39,2.67c-.77.44-1.4,0-1.4-1.06A3.36,3.36,0,0,1,630.91,440.64Z" />
            <path class="cls-3" d="M725.87,357.42l7,4a.79.79,0,0,1,.33.39,11.68,11.68,0,0,1,1.91,1.55v-3.24l-6.91-4Z" />
            <path class="cls-2"
                d="M681.26,398.83a6,6,0,0,0-3.09-.8,10.09,10.09,0,0,0-5,1.51c-7.24,4.18-13.13,15.47-13.13,25.16,0,4.95,1.56,8.7,4.29,10.27,2.21,1.28,5.08,1,8.08-.71,7.24-4.18,13.13-15.47,13.13-25.16C685.55,404.15,684,400.4,681.26,398.83Zm-8.46,2.35c.77-.44,1.4,0,1.4,1.06a3.34,3.34,0,0,1-1.4,2.66c-.77.45-1.39,0-1.39-1A3.35,3.35,0,0,1,672.8,401.18Zm-8.33,9.42c.54-1,1.43-1.55,2-1.14s.55,1.59,0,2.63-1.43,1.55-2,1.14S663.92,411.64,664.47,410.6Zm-2.06,14.16c-.77.45-1.4,0-1.4-1.05a3.34,3.34,0,0,1,1.4-2.67c.77-.45,1.4,0,1.4,1.06A3.34,3.34,0,0,1,662.41,424.76Zm4,6.93c-.54,1-1.43,1.55-2,1.14s-.55-1.59,0-2.63,1.43-1.56,2-1.14S667,430.65,666.44,431.69Zm6.36.93c-.77.45-1.39,0-1.39-1.05a3.34,3.34,0,0,1,1.39-2.67c.77-.45,1.4,0,1.4,1.05A3.34,3.34,0,0,1,672.8,432.62Zm.38-5.16a6.71,6.71,0,0,1-3.33,1,4.46,4.46,0,0,1-2.29-.61c-1.87-1.08-2.95-3.51-2.95-6.66,0-5.7,3.51-12.37,7.81-14.85,2-1.17,4-1.31,5.62-.39,1.88,1.08,3,3.51,3,6.66C681,418.32,677.49,425,673.18,427.46Zm8-4.26c-.55,1.05-1.43,1.56-2,1.14s-.54-1.59,0-2.63,1.43-1.55,2-1.14S681.68,422.16,681.14,423.2Zm0-19.6c-.55,1-1.43,1.56-2,1.14s-.54-1.59,0-2.63,1.43-1.55,2-1.14S681.68,402.56,681.14,403.6ZM683.2,409c.77-.45,1.39,0,1.39,1a3.34,3.34,0,0,1-1.39,2.67c-.78.45-1.4,0-1.4-1.05A3.32,3.32,0,0,1,683.2,409Z" />
            <polygon class="cls-5" points="867.2 282.97 861.04 279.39 729.69 355.22 735.84 358.77 867.2 282.97" />
            <path class="cls-5"
                d="M634.78,421.81l-2.58-1.52a10,10,0,0,0-3.6-.66,15.6,15.6,0,0,0-7.71,2.33c-6.67,3.86-12.89,11.89-16.63,21.5a47.05,47.05,0,0,0-3.39,16.83c0,7.61,2.43,13.39,6.67,15.83,3.46,2,7.93,1.62,12.59-1.07,11-6.38,20-23.57,20-38.33,0-5.28-1.16-9.69-3.35-12.75A10.77,10.77,0,0,0,634.78,421.81Zm-13.89,45.37a11.58,11.58,0,0,1-5.75,1.73,7.66,7.66,0,0,1-3.85-1c-3.21-1.86-5-6.08-5-11.59,0-10.18,6.23-22.06,13.89-26.48,3.49-2,6.91-2.28,9.61-.72,3.21,1.86,5,6.08,5,11.59C634.79,450.88,628.56,462.76,620.89,467.18Z" />
            <path class="cls-3"
                d="M672.42,389a16.91,16.91,0,0,1,8.76-2.52l-.57-.32h-.08a.73.73,0,0,1-.51-.33l-1.71-1-23.08,13.33h0a.75.75,0,0,1-.34.09.82.82,0,0,1-.35-.09h0l-11.24-6.5v22.22a10.84,10.84,0,0,1-2.66,7.11l-.57.69c-.64.79-1.18,1.45-1.6,1.9a22.2,22.2,0,0,1,3.16,10.3l13.29,7.73c-2.07-3.25-3.21-7.7-3.21-13C651.64,413.44,661,395.65,672.42,389Z" />
            <path class="cls-2" d="M680.17,383.81l-.33.19.27.15Z" />
            <path class="cls-2"
                d="M677.28,407.27a3.06,3.06,0,0,0-1.53-.4,5.28,5.28,0,0,0-2.57.79c-3.88,2.24-7,8.31-7,13.53,0,2.59.8,4.54,2.18,5.34a4.06,4.06,0,0,0,4.1-.39c3.89-2.24,7.05-8.31,7.05-13.53C679.47,410,678.67,408.07,677.28,407.27Z" />
            <path class="cls-2"
                d="M625,438.87a3,3,0,0,0-1.53-.39,5.17,5.17,0,0,0-2.57.79c-3.88,2.24-7,8.31-7,13.52,0,2.6.8,4.55,2.19,5.35a4,4,0,0,0,4.09-.39c3.89-2.24,7-8.31,7-13.53C627.18,441.62,626.38,439.67,625,438.87Z" />
            <path class="cls-6"
                d="M459,315.3v7.48l1.43-5.36a.66.66,0,0,1-.11-.36v-3.32a5.7,5.7,0,0,0-2.32-4.49l-6.83-3.95a1.23,1.23,0,0,0-.81-.2l-1.05.56,6.61,3.82A7.2,7.2,0,0,1,459,315.3Z" />
            <path class="cls-7"
                d="M630.26,413.24a12.22,12.22,0,0,0-7.43-.22l9.88,5.81a11.45,11.45,0,0,1,4.78,3.54l.35-.41C636.31,417.55,633.7,414.53,630.26,413.24Z" />
            <path class="cls-8"
                d="M540.78,428.17l-10.45-6c-.11-.06-.4-.2-.58-.1s-.34.41-.34,1v28a4.28,4.28,0,0,0,1.68,3.29l10.45,6c.12.07.4.22.59.11s.33-.41.33-1v-28A4.21,4.21,0,0,0,540.78,428.17Zm-2,27.66a2.54,2.54,0,0,1-1.33.35,3.75,3.75,0,0,1-1.85-.54c-2.28-1.32-4.07-4.71-4.07-7.72a4,4,0,0,1,1.66-3.64,3.09,3.09,0,0,1,3.18.19c2.28,1.32,4.07,4.71,4.07,7.71A4,4,0,0,1,538.73,455.83Zm1-13a3.38,3.38,0,0,1-1.7.45,4.93,4.93,0,0,1-2.44-.72c-3.1-1.79-5.53-6.41-5.53-10.52,0-2.27.79-4,2.16-4.83a4.05,4.05,0,0,1,4.14.28c3.1,1.79,5.54,6.41,5.54,10.51C541.86,440.24,541.07,442,539.69,442.79Z" />
            <path class="cls-4"
                d="M547.64,417.89h-.06l-96.19-55.64c-.13,1.55-.21,3.1-.25,4.65l96.2,55.65C547.39,421,547.5,419.44,547.64,417.89Z" />
            <path class="cls-1"
                d="M639.42,420a9.31,9.31,0,0,0,2.28-6.11V292.73a4.72,4.72,0,0,0-1.38-3.81l-.59-.34a3.17,3.17,0,0,0-2.67.44l-29.92,17.6V422.38a37.86,37.86,0,0,1,9.76-8.52,24.53,24.53,0,0,1,3.85-1.8h0a14.29,14.29,0,0,1,10-.24c3.64,1.36,6.43,4.41,8.15,8.79C639.15,420.36,639.32,420.15,639.42,420Z" />
            <polygon class="cls-8" points="962.79 66.85 849.84 1.64 541.9 179.42 654.85 244.63 962.79 66.85" />
            <polygon class="cls-2" points="643.23 389.95 654.09 396.23 654.09 381.14 643.23 374.87 643.23 389.95" />
            <polygon class="cls-2" points="654.09 245.95 541.14 180.74 541.14 194.6 654.09 259.81 654.09 245.95" />
            <polygon class="cls-4" points="521.07 438.94 474.76 412.15 475.11 417.41 520.3 443.45 521.07 438.94" />
            <path class="cls-9"
                d="M542.65,230.74a.88.88,0,0,1,.3.1l97.52,56.41c.12.05.26.08.38.14s.17.17.27.23l.18.11a.81.81,0,0,1,.26.26,6.48,6.48,0,0,1,1.67,4.74v80.38l10.86,6.27V261.57l-113-65.21v34.11a3.83,3.83,0,0,1,1.31.16A.64.64,0,0,1,542.65,230.74Z" />
            <path class="cls-2"
                d="M457.5,328.5V315.3a5.72,5.72,0,0,0-2.32-4.5l-6.83-3.94a1.1,1.1,0,0,0-.93-.16l-.11.06a1.81,1.81,0,0,0-.52,1.48v17.37a5.7,5.7,0,0,0,2.32,4.49l6.86,4.13Z" />
            <path class="cls-2"
                d="M461.05,385.89a3.53,3.53,0,0,0-1.67-.52,1.79,1.79,0,0,0-.94.25c-.89.52-1.41,1.79-1.41,3.51,0,3.55,2.15,7.67,4.78,9.2a2.66,2.66,0,0,0,2.61.27c.89-.52,1.4-1.8,1.4-3.51C465.82,391.54,463.68,387.41,461.05,385.89Z" />
            <path class="cls-4"
                d="M479.37,424.62l37.26,21.55A2.34,2.34,0,0,0,520,445l-44.59-25.69A8.43,8.43,0,0,0,479.37,424.62Z" />
            <path class="cls-2"
                d="M461.05,402.92a2.23,2.23,0,0,0-1.08-.35,1.22,1.22,0,0,0-.58.15,2.65,2.65,0,0,0-.89,2.33c0,2.43,1.52,5.36,3.31,6.39a1.7,1.7,0,0,0,1.65.2,2.63,2.63,0,0,0,.9-2.33C464.36,406.88,462.84,404,461.05,402.92Z" />
            <path class="cls-2"
                d="M535.55,428.77a3.39,3.39,0,0,0-1.66-.52,1.94,1.94,0,0,0-.95.24c-.89.52-1.4,1.8-1.4,3.51,0,3.55,2.14,7.68,4.78,9.2a2.65,2.65,0,0,0,2.61.27c.89-.51,1.4-1.79,1.4-3.51C540.33,434.41,538.19,430.29,535.55,428.77Z" />
            <path class="cls-2"
                d="M535.55,445.79a2.19,2.19,0,0,0-1.08-.34,1.17,1.17,0,0,0-.57.14,2.65,2.65,0,0,0-.89,2.33c0,2.43,1.51,5.36,3.31,6.39a1.68,1.68,0,0,0,1.65.2,2.63,2.63,0,0,0,.9-2.33C538.87,449.76,537.35,446.83,535.55,445.79Z" />
            <path class="cls-8"
                d="M466.27,385.29l-10.44-6a1,1,0,0,0-.44-.14.28.28,0,0,0-.15,0c-.16.09-.34.4-.34,1v28a4.26,4.26,0,0,0,1.69,3.29l10.44,6c.12.07.41.21.59.11s.34-.41.34-1v-28A4.26,4.26,0,0,0,466.27,385.29Zm-2,27.67a2.7,2.7,0,0,1-1.33.35,3.67,3.67,0,0,1-1.85-.55c-2.29-1.32-4.07-4.7-4.07-7.71a4,4,0,0,1,1.65-3.65,3.09,3.09,0,0,1,3.18.2c2.29,1.32,4.07,4.7,4.07,7.71A4,4,0,0,1,464.23,413Zm1-13a3.41,3.41,0,0,1-1.71.45,4.9,4.9,0,0,1-2.43-.72c-3.11-1.8-5.54-6.42-5.54-10.52,0-2.27.79-4,2.16-4.83a4.07,4.07,0,0,1,4.14.27c3.11,1.8,5.54,6.41,5.54,10.52C467.35,397.36,466.56,399.12,465.19,399.92Z" />
            <path class="cls-4" d="M525.69,411.78l-52.51-30.37c.05,1.36.13,3.6.23,6.06l51.36,29.72Z" />
            <polygon class="cls-4" points="522.24 432.09 474.24 404.32 474.63 410.32 521.35 437.34 522.24 432.09" />
            <path class="cls-4" d="M523.4,425.24l-49.63-28.71c.05,1.27.1,2.27.14,2.8l.21,3.16,48.39,28Z" />
            <path class="cls-4" d="M524.5,418.79l-51-29.51c.08,1.88.15,3.78.22,5.44l50,28.92Z" />
            <path class="cls-2"
                d="M750,291.06a.75.75,0,0,1,.3.66.76.76,0,0,1-.38.61l-94.3,54.45v17.61L779.31,293l-43.65-33a.8.8,0,0,1-.3-.66.78.78,0,0,1,.38-.61L963.55,127.18V109.57l-257.2,148.5Z" />
            <path class="cls-4" d="M867.71,284.44l-131.1,75.65v5.06a17.66,17.66,0,0,1,2.14,4.28l129-74.41Z" />
            <path class="cls-2"
                d="M944.3,244.8c-7.25,4.18-13.14,15.47-13.14,25.17,0,4.95,1.57,8.69,4.29,10.27,2.21,1.27,5.08,1,8.08-.72,7.24-4.18,13.14-15.47,13.14-25.16,0-5-1.57-8.69-4.29-10.27a6.17,6.17,0,0,0-3.1-.8A10.16,10.16,0,0,0,944.3,244.8Zm-.39,1.64c.77-.44,1.4,0,1.4,1.06a3.36,3.36,0,0,1-1.4,2.67c-.77.44-1.39,0-1.39-1.06A3.35,3.35,0,0,1,943.91,246.44Zm-8.33,9.42c.54-1,1.43-1.55,2-1.14s.55,1.59,0,2.63-1.43,1.56-2,1.14S935,256.9,935.58,255.86ZM933.52,270c-.77.44-1.4,0-1.4-1.06a3.36,3.36,0,0,1,1.4-2.67c.77-.44,1.4,0,1.4,1.06A3.36,3.36,0,0,1,933.52,270Zm4,6.92c-.54,1-1.43,1.55-2,1.14s-.55-1.59,0-2.63,1.43-1.55,2-1.14S938.1,275.91,937.55,277Zm6.36.93c-.77.45-1.39,0-1.39-1.05a3.34,3.34,0,0,1,1.39-2.67c.77-.45,1.4,0,1.4,1.06A3.34,3.34,0,0,1,943.91,277.88Zm8.34-9.41c-.54,1-1.43,1.55-2,1.14s-.55-1.6,0-2.64,1.43-1.55,2-1.14S952.8,267.42,952.25,268.47Zm2.06-14.17c.77-.44,1.39,0,1.39,1.06a3.33,3.33,0,0,1-1.39,2.66c-.77.45-1.4,0-1.4-1A3.36,3.36,0,0,1,954.31,254.3Zm-4-6.93c.54-1,1.43-1.55,2-1.14s.55,1.6,0,2.64-1.43,1.55-2,1.14S949.73,248.42,950.28,247.37Zm1.82,10.51c0,5.7-3.5,12.36-7.8,14.84a6.67,6.67,0,0,1-3.34,1,4.55,4.55,0,0,1-2.29-.6c-1.87-1.09-2.94-3.52-2.94-6.67,0-5.7,3.5-12.36,7.8-14.85,2-1.17,4-1.31,5.62-.39C951,252.29,952.1,254.72,952.1,257.88Z" />
            <path class="cls-2"
                d="M902.17,279a3.06,3.06,0,0,0-1.53-.39,5.26,5.26,0,0,0-2.57.78c-3.88,2.24-7,8.31-7,13.53,0,2.59.79,4.54,2.18,5.34a4.06,4.06,0,0,0,4.1-.39c3.88-2.24,7-8.31,7-13.53C904.35,281.75,903.56,279.8,902.17,279Z" />
            <path class="cls-5"
                d="M732,362.81a9.62,9.62,0,0,0-4.86-1.26,15.59,15.59,0,0,0-7.72,2.34c-11,6.37-20,23.56-20,38.32,0,7.62,2.43,13.39,6.67,15.84,3.45,2,7.93,1.62,12.58-1.07,11-6.38,20-23.57,20-38.33C738.67,371,736.23,365.26,732,362.81Zm-12.58,46.3a11.59,11.59,0,0,1-5.76,1.72,7.56,7.56,0,0,1-3.85-1c-3.21-1.85-5-6.07-5-11.58,0-10.18,6.23-22.06,13.89-26.49,3.5-2,6.91-2.27,9.61-.71,3.21,1.85,5,6.08,5,11.59C733.3,392.81,727.07,404.69,719.41,409.11Z" />
            <path class="cls-2"
                d="M906.15,270.56a6,6,0,0,0-3.09-.8,10.17,10.17,0,0,0-5,1.51c-7.24,4.18-13.13,15.47-13.13,25.16,0,5,1.56,8.7,4.29,10.27,2.2,1.28,5.08,1,8.08-.71,7.24-4.18,13.13-15.47,13.13-25.16C910.44,275.88,908.88,272.13,906.15,270.56Zm-8.46,2.35c.77-.44,1.4,0,1.4,1.06a3.36,3.36,0,0,1-1.4,2.67c-.77.44-1.4,0-1.4-1.06A3.36,3.36,0,0,1,897.69,272.91Zm-8.34,9.42c.55-1,1.43-1.55,2-1.14s.54,1.59,0,2.63-1.43,1.55-2,1.14S888.81,283.37,889.35,282.33Zm-2.05,14.16c-.77.45-1.4,0-1.4-1.05a3.36,3.36,0,0,1,1.4-2.67c.77-.44,1.39,0,1.39,1.06A3.33,3.33,0,0,1,887.3,296.49Zm4,6.93c-.55,1-1.43,1.55-2,1.14s-.54-1.59,0-2.63,1.43-1.55,2-1.14S891.87,302.38,891.33,303.42Zm6.36.93c-.77.45-1.4,0-1.4-1.05a3.34,3.34,0,0,1,1.4-2.67c.77-.45,1.4,0,1.4,1.05A3.34,3.34,0,0,1,897.69,304.35Zm.38-5.16a6.74,6.74,0,0,1-3.33,1,4.46,4.46,0,0,1-2.29-.61c-1.87-1.08-3-3.51-3-6.66,0-5.7,3.5-12.37,7.81-14.85,2-1.17,4-1.31,5.62-.39,1.87,1.08,3,3.51,3,6.66C905.88,290.05,902.38,296.71,898.07,299.19Zm8-4.26c-.55,1.05-1.43,1.56-2,1.14s-.54-1.59,0-2.63,1.43-1.55,2-1.14S906.57,293.89,906,294.93Zm0-19.59c-.55,1-1.43,1.55-2,1.14s-.54-1.6,0-2.64,1.43-1.55,2-1.14S906.57,274.29,906,275.34Zm2.05,5.43c.78-.45,1.4,0,1.4,1.05a3.32,3.32,0,0,1-1.4,2.67c-.77.45-1.39,0-1.39-1.05A3.34,3.34,0,0,1,908.08,280.77Z" />
            <path class="cls-5"
                d="M944.3,235.62c-11,6.37-20,23.56-20,38.32,0,7.62,2.43,13.4,6.67,15.84,3.47,2,7.93,1.62,12.59-1.07,11-6.38,20-23.57,20-38.33,0-7.61-2.43-13.39-6.67-15.84a9.62,9.62,0,0,0-4.86-1.26A15.7,15.7,0,0,0,944.3,235.62Zm13.89,18.74c0,10.18-6.23,22.06-13.89,26.48a11.59,11.59,0,0,1-5.76,1.72,7.65,7.65,0,0,1-3.85-1c-3.21-1.86-5.05-6.08-5.05-11.59,0-10.18,6.23-22.06,13.89-26.49,3.5-2,6.9-2.27,9.61-.71C956.35,244.62,958.19,248.85,958.19,254.36Z" />
            <path class="cls-5"
                d="M910.66,261a9.62,9.62,0,0,0-4.86-1.26,15.6,15.6,0,0,0-7.73,2.34c-11,6.37-20,23.56-20,38.32,0,7.62,2.43,13.39,6.67,15.84,3.46,2,7.93,1.62,12.59-1.07,11-6.38,20-23.57,20-38.33C917.33,269.23,914.9,263.46,910.66,261Zm-12.59,46.3a11.56,11.56,0,0,1-5.75,1.72,7.51,7.51,0,0,1-3.85-1c-3.21-1.85-5.06-6.07-5.06-11.59,0-10.17,6.24-22.05,13.9-26.48,3.5-2,6.9-2.27,9.6-.71,3.21,1.85,5.06,6.08,5.06,11.59C912,291,905.73,302.89,898.07,307.31Z" />
            <path class="cls-2"
                d="M946.86,252.14a5.19,5.19,0,0,0-2.56.78c-3.89,2.24-7,8.31-7,13.53,0,2.6.8,4.54,2.18,5.35a4.06,4.06,0,0,0,4.1-.4c3.89-2.24,7.05-8.31,7.05-13.52,0-2.6-.8-4.55-2.19-5.35A3,3,0,0,0,946.86,252.14Z" />
            <polygon class="cls-2" points="655.61 259.81 963.55 82.04 963.55 68.17 655.61 245.95 655.61 259.81" />
            <path class="cls-10"
                d="M655.61,345l92.55-53.43-43.65-33a.75.75,0,0,1-.3-.65.78.78,0,0,1,.38-.62l259-149.51v-24L655.61,261.57Z" />
            <path class="cls-10"
                d="M781.15,292.45a.8.8,0,0,1,.3.66.78.78,0,0,1-.38.61L655.61,366.15v13.23L963.55,201.6V128.94l-226,130.52ZM944.51,197.8a.76.76,0,0,1,.38-.66l12-6.91a.77.77,0,0,1,1.15.66v8.79a.76.76,0,0,1-.39.66l-12,6.92a.72.72,0,0,1-.38.1.75.75,0,0,1-.38-.1.76.76,0,0,1-.38-.66Z" />
            <path class="cls-3"
                d="M897.31,260.77a16.91,16.91,0,0,1,8.76-2.52l-.91-.52h0l-3.31-1.88-39.27,22.67,6.29,3.66a.74.74,0,0,1,.35.83.53.53,0,0,1,0,.12v12.34a.76.76,0,0,1-.38.66l-7.19,4.15a12.12,12.12,0,0,0,3.92,4.89l14.16,8.23c-2.07-3.24-3.21-7.7-3.21-13C876.53,285.17,885.85,267.39,897.31,260.77Z" />
            <path class="cls-2"
                d="M727.49,372.36a6.16,6.16,0,0,0-3.09-.8,10.17,10.17,0,0,0-5,1.51c-7.25,4.18-13.14,15.47-13.14,25.17,0,4.95,1.57,8.69,4.29,10.26,2.21,1.28,5.08,1,8.08-.71,7.25-4.18,13.14-15.47,13.14-25.16C731.78,377.68,730.21,373.93,727.49,372.36ZM719,374.71c.77-.44,1.39,0,1.39,1.06a3.35,3.35,0,0,1-1.39,2.67c-.78.44-1.4,0-1.4-1.06A3.33,3.33,0,0,1,719,374.71Zm-8.34,9.42c.54-1,1.43-1.55,2-1.14s.55,1.59,0,2.63-1.43,1.56-2,1.14S710.14,385.17,710.69,384.13Zm-2.06,14.17c-.77.44-1.39,0-1.39-1.06a3.35,3.35,0,0,1,1.39-2.67c.77-.44,1.4,0,1.4,1.06A3.36,3.36,0,0,1,708.63,398.3Zm4,6.92c-.54,1-1.43,1.55-2,1.14s-.55-1.59,0-2.63,1.43-1.55,2-1.14S713.21,404.18,712.66,405.22Zm6.37.93c-.78.45-1.4,0-1.4-1a3.32,3.32,0,0,1,1.4-2.67c.77-.45,1.39,0,1.39,1.05A3.34,3.34,0,0,1,719,406.15Zm.38-5.16a6.77,6.77,0,0,1-3.34,1,4.49,4.49,0,0,1-2.28-.6c-1.88-1.09-2.95-3.52-2.95-6.67,0-5.7,3.5-12.36,7.8-14.85,2-1.17,4-1.31,5.63-.39,1.87,1.08,2.94,3.51,2.94,6.66C727.21,391.85,723.71,398.51,719.41,401Zm8-4.26c-.54,1-1.43,1.56-2,1.15s-.55-1.6,0-2.64,1.43-1.55,2-1.14S727.91,395.69,727.36,396.73Zm0-19.59c-.54,1-1.43,1.55-2,1.14s-.55-1.59,0-2.64,1.43-1.55,2-1.14S727.91,376.09,727.36,377.14Zm2.06,5.43c.77-.45,1.4,0,1.4,1.06a3.34,3.34,0,0,1-1.4,2.66c-.77.45-1.4,0-1.4-1.05A3.34,3.34,0,0,1,729.42,382.57Z" />
            <polygon class="cls-2" points="956.49 192.21 946.03 198.24 946.03 205.28 956.49 199.24 956.49 192.21" />
            <path class="cls-2" d="M655.61,396.23l25.19-14.55,0,0L963.55,218.45V203.36L655.61,381.14Z" />
            <path class="cls-3"
                d="M947.9,229.25l-40.78,23.54a.7.7,0,0,1,0,.32c-.29,1.2-.51,2.4-.71,3.58l5.11,2.9a.72.72,0,0,1,.32.39c4.46,2.85,7,8.94,7,16.87a41,41,0,0,1-.42,5.7l7.52,4.37c-2.07-3.24-3.21-7.7-3.21-13,0-15.24,9.32-33,20.78-39.64a16.94,16.94,0,0,1,8.76-2.52L948,229.34A.33.33,0,0,1,947.9,229.25Z" />
            <path class="cls-5"
                d="M540.9,394.84c1,.54,5.42,4.12,5.82,3.16a140.78,140.78,0,0,0,4.45-15.8L486,344.68c-6.14-3.55-15.53-3.94-20.85-.86l-6.54,3.77s9.51,5.34,10.12,5.7C492,367.05,520.1,383.17,540.9,394.84Z" />
            <path class="cls-11"
                d="M964.93,66.43a.58.58,0,0,0-.19-.19s0,0,0,0L850.22.1a.79.79,0,0,0-.76,0L540,178.76l0,0a.86.86,0,0,0-.19.19.35.35,0,0,0,0,.08.71.71,0,0,0-.1.35v51.34a9.26,9.26,0,0,0-1,.48L479.33,266.1c-4.05,2.34-7.6,7.81-8.83,13.58l-8.76,32.89a7,7,0,0,0-2.95-4.64L452,304a2.82,2.82,0,0,0-1.5-.38.74.74,0,0,0-.6,0l-3.14,1.7-.12,0-.06.05-.07,0a.92.92,0,0,0-.25.23,3.38,3.38,0,0,0-.94,2.53v17.37a7.2,7.2,0,0,0,3.07,5.81l7.22,4.34L452.31,348a81.9,81.9,0,0,0-2.29,12.7.75.75,0,0,0,0,.44q-.29,2.92-.36,5.87a.78.78,0,0,0,0,.54c0,.53,0,1.06,0,1.6v41.62a7.16,7.16,0,0,0,1.86,5.29.82.82,0,0,0,.32.39l97.66,56.49a.86.86,0,0,0,.35.09s.08.09.13.12a4.08,4.08,0,0,0,2,.54,6,6,0,0,0,3-.89L578.14,459l3.6-2.15c1.21,4.89,3.73,8.48,7.2,10.2a.84.84,0,0,0,.26.27l17.07,9.82a.6.6,0,0,0,.23.06c.1.06.18.15.28.2a11,11,0,0,0,5.62,1.47,17.17,17.17,0,0,0,8.49-2.54c11.46-6.62,20.79-24.4,20.79-39.65,0-.33,0-.65,0-1l16.9,9.83a1,1,0,0,0,.23.06l.29.2a11.12,11.12,0,0,0,5.62,1.47,17.17,17.17,0,0,0,8.49-2.54c9.67-5.58,17.79-19.1,20.1-32.34l11.49,6.68a1.05,1.05,0,0,0,.24.06c.1.06.18.14.28.2a11.15,11.15,0,0,0,5.62,1.47,17.18,17.18,0,0,0,8.5-2.54c11.46-6.62,20.78-24.4,20.78-39.65a29.77,29.77,0,0,0-1-7.73L860.34,301a13.55,13.55,0,0,0,4.39,5.39h0l0,0,18.66,10.85a1,1,0,0,0,.23.06l.29.2a11.12,11.12,0,0,0,5.62,1.47,17.17,17.17,0,0,0,8.49-2.54c9.67-5.58,17.79-19.1,20.1-32.34l11.49,6.68a1.12,1.12,0,0,0,.23.06l.29.2a11.12,11.12,0,0,0,5.62,1.47,17.24,17.24,0,0,0,8.5-2.54c11.46-6.62,20.78-24.4,20.78-39.65,0-7.93-2.57-14-7-16.87a.72.72,0,0,0-.32-.39l-8.33-4.74,15.3-8.83.07-.06.12-.11a.62.62,0,0,0,.08-.12l.06-.12a.9.9,0,0,0,0-.16s0-.06,0-.09v-152a.78.78,0,0,0-.09-.34ZM849.84,1.64,962.79,66.85,654.85,244.63l-113-65.21Zm-308.7,179.1,113,65.21v13.86l-113-65.21Zm0,15.62,113,65.21V379.38l-10.86-6.27V292.73a6.48,6.48,0,0,0-1.67-4.74.81.81,0,0,0-.26-.26l-.18-.11c-.1-.06-.17-.17-.27-.23s-.26-.09-.38-.14L543,230.84a.88.88,0,0,0-.3-.1.64.64,0,0,0-.2-.11,3.83,3.83,0,0,0-1.31-.16Zm113,184.78v15.09L643.23,390V374.87ZM630.8,411.82a14.29,14.29,0,0,0-10,.24h0a24.53,24.53,0,0,0-3.85,1.8,37.86,37.86,0,0,0-9.76,8.52V306.62L637.06,289a3.17,3.17,0,0,1,2.67-.44l.59.34a4.72,4.72,0,0,1,1.38,3.81v121.2a9.31,9.31,0,0,1-2.28,6.11c-.1.11-.27.32-.47.57C637.23,416.23,634.44,413.18,630.8,411.82Zm7,10.14-.35.41a11.45,11.45,0,0,0-4.78-3.54L622.83,413a12.22,12.22,0,0,1,7.43.22C633.7,414.53,636.31,417.55,637.84,422ZM450.38,305.1a1.23,1.23,0,0,1,.81.2l6.83,3.95a5.7,5.7,0,0,1,2.32,4.49v3.32a.66.66,0,0,0,.11.36L459,322.78V315.3a7.2,7.2,0,0,0-3.08-5.82l-6.61-3.82Zm-1.27,25a5.7,5.7,0,0,1-2.32-4.49V308.24a1.81,1.81,0,0,1,.52-1.48l.11-.06a1.1,1.1,0,0,1,.93.16l6.83,3.94a5.72,5.72,0,0,1,2.32,4.5v13.2L456,334.23Zm2.28,32.14,96.19,55.64h.06c-.14,1.55-.25,3.1-.3,4.65l-96.2-55.65C451.18,365.34,451.26,363.79,451.39,362.24Zm23.72,55.17-.35-5.26,46.31,26.79-.76,4.51ZM520,445a2.34,2.34,0,0,1-3.35,1.15l-37.26-21.55a8.43,8.43,0,0,1-4-5.29Zm-45.35-34.7-.39-6,48,27.77-.9,5.25Zm-.51-7.83-.21-3.16c0-.53-.09-1.53-.14-2.8l49.63,28.71-.89,5.24Zm-.43-7.77c-.07-1.66-.14-3.56-.22-5.44l51,29.51-.83,4.85Zm-.28-7.25c-.1-2.46-.18-4.7-.23-6.06l52.51,30.37-.92,5.41Zm-20.68,27.79a.5.5,0,0,0-.07-.08c-1-.77-1.6-2.38-1.6-4.42V369.14c0-.17,0-.35,0-.52l20.55,11.89c.06,1.83.33,9.22.54,14.34a.76.76,0,0,0,0,.61c.08,1.81.15,3.27.19,4l1.23,18.48a10,10,0,0,0,5,8l37.26,21.55a3.84,3.84,0,0,0,1.94.52,3.92,3.92,0,0,0,1.65-.36,3.87,3.87,0,0,0,2.17-2.86l1-6.15h0l4.43-26.05,20.18,11.68c0,.44,0,.88,0,1.33v41.62a9.46,9.46,0,0,0,.48,3Zm-1.17-54.69a80.14,80.14,0,0,1,2.22-12.19L472,280c1.15-5.41,4.41-10.47,8.12-12.61l59.26-34.86a3.24,3.24,0,0,1,2.62-.48h.13l.07.07,95.19,55a6.45,6.45,0,0,0-1.08.49L577,322.56c-4,2.34-7.61,7.81-8.83,13.57L550,404.45a83,83,0,0,0-2.2,11.79ZM581.8,455.08l-4.44,2.65-23.24,13.74a3.42,3.42,0,0,1-3.49.35c-1.19-.69-1.87-2.36-1.87-4.6V425.6a80.81,80.81,0,0,1,2.72-20.76l18.2-68.35c1.15-5.41,4.41-10.48,8.12-12.61l27.82-16.37V424.29A60.78,60.78,0,0,0,595,447.16l-13.22,7.91Zm8.47,11.13a.74.74,0,0,0-.33-.3c-3.34-1.5-5.74-5-6.84-9.84l13-7.77,0-.05a.08.08,0,0,0,0,0,.66.66,0,0,0,.25-.4h0c3.09-14,11.62-27.08,21.23-32.63a22.34,22.34,0,0,1,3.22-1.54l7.58,4.46a17.27,17.27,0,0,0-8.33,2.54c-7,4-13.43,12.35-17.29,22.26a48.8,48.8,0,0,0-3.49,17.39c0,5.3,1.15,9.77,3.24,13Zm29.86,8.84c-4.66,2.69-9.13,3.07-12.59,1.07-4.24-2.44-6.67-8.22-6.67-15.83a47.05,47.05,0,0,1,3.39-16.83c3.74-9.61,10-17.64,16.63-21.5a15.6,15.6,0,0,1,7.71-2.33,10,10,0,0,1,3.6.66l2.58,1.52a10.77,10.77,0,0,1,2,2.16c2.19,3.06,3.35,7.47,3.35,12.75C640.16,451.48,631.17,468.67,620.13,475.05Zm21.43-41.12a22.2,22.2,0,0,0-3.16-10.3c.42-.45,1-1.11,1.6-1.9l.57-.69a10.84,10.84,0,0,0,2.66-7.11V391.71l11.24,6.5h0a.82.82,0,0,0,.35.09.75.75,0,0,0,.34-.09h0l23.08-13.33,1.71,1a.73.73,0,0,0,.51.33h.08l.57.32a16.91,16.91,0,0,0-8.76,2.52c-11.46,6.61-20.78,24.4-20.78,39.64,0,5.28,1.14,9.73,3.21,13ZM679.84,384l.33-.19-.06.34Zm-7.42,59.44c-4.66,2.69-9.13,3.07-12.59,1.08-4.24-2.45-6.67-8.22-6.67-15.84,0-14.76,9-31.95,20-38.32a15.6,15.6,0,0,1,7.73-2.34,9.62,9.62,0,0,1,4.86,1.26c4.24,2.45,6.67,8.22,6.67,15.84C692.44,419.88,683.46,437.07,672.42,443.44Zm21.14-32.62a42.61,42.61,0,0,0,.41-5.7c0-7.93-2.57-14-7-16.87a.78.78,0,0,0-.32-.4l-5.11-2.9c.12-.71.25-1.43.4-2.15l42.43-24.49,3.06,1.74a16.94,16.94,0,0,0-8.76,2.52c-11.46,6.62-20.78,24.4-20.78,39.64,0,5.28,1.14,9.74,3.21,13Zm41.52-50.73v3.24a11.68,11.68,0,0,0-1.91-1.55.79.79,0,0,0-.33-.39l-7-4,2.3-1.32Zm-5.39-4.87L861,279.39,867.2,283l-131.36,75.8ZM718.64,417c-4.65,2.69-9.13,3.07-12.58,1.07-4.24-2.45-6.67-8.22-6.67-15.84,0-14.76,9-31.95,20-38.32a15.59,15.59,0,0,1,7.72-2.34,9.62,9.62,0,0,1,4.86,1.26c4.24,2.45,6.68,8.22,6.68,15.84C738.67,393.41,729.68,410.6,718.64,417Zm20.11-47.55a17.66,17.66,0,0,0-2.14-4.28v-5.06l131.1-75.65V295Zm126.83-64.27a12.12,12.12,0,0,1-3.92-4.89l7.19-4.15a.76.76,0,0,0,.38-.66V283.12a.53.53,0,0,0,0-.12.74.74,0,0,0-.35-.83l-6.29-3.66,39.27-22.67,3.31,1.88h0l.91.52a16.91,16.91,0,0,0-8.76,2.52c-11.46,6.62-20.78,24.4-20.78,39.64,0,5.28,1.14,9.74,3.21,13ZM903.37,255l2.06-1.19c-.16.71-.3,1.42-.42,2.12Zm-6.06,60.22c-4.66,2.69-9.13,3.07-12.59,1.07-4.24-2.45-6.67-8.22-6.67-15.84,0-14.76,9-32,20-38.32a15.6,15.6,0,0,1,7.73-2.34,9.62,9.62,0,0,1,4.86,1.26c4.24,2.45,6.67,8.22,6.67,15.84C917.33,291.61,908.35,308.8,897.31,315.18Zm66.24-64.8c0,14.76-9,31.95-20,38.33-4.66,2.69-9.12,3.07-12.59,1.07-4.24-2.44-6.67-8.22-6.67-15.84,0-14.76,9-31.95,20-38.32a15.7,15.7,0,0,1,7.72-2.34,9.62,9.62,0,0,1,4.86,1.26C961.12,237,963.55,242.77,963.55,250.38Zm-11.26-18.6a16.94,16.94,0,0,0-8.76,2.52c-11.46,6.62-20.78,24.4-20.78,39.64,0,5.28,1.14,9.74,3.21,13l-7.52-4.37a41,41,0,0,0,.42-5.7c0-7.93-2.57-14-7-16.87a.72.72,0,0,0-.32-.39l-5.11-2.9c.2-1.18.42-2.38.71-3.58a.7.7,0,0,0,0-.32l40.78-23.54a.33.33,0,0,0,.11.09Zm11.26-13.33L680.84,381.66l0,0-25.19,14.55V381.14L963.55,203.36Zm0-16.85L655.61,379.38V366.15l125.46-72.43a.78.78,0,0,0,.38-.61.8.8,0,0,0-.3-.66l-43.65-33,226-130.52Zm0-74.42L735.74,258.71a.78.78,0,0,0-.38.61.8.8,0,0,0,.3.66l43.65,33-123.7,71.42V346.78l94.3-54.45a.76.76,0,0,0,.38-.61.75.75,0,0,0-.3-.66l-43.64-33,257.2-148.5Zm0-19.37-259,149.51a.78.78,0,0,0-.38.62.75.75,0,0,0,.3.65l43.65,33L655.61,345V261.57L963.55,83.8Zm0-25.77L655.61,259.81V246L963.55,68.17Z" />
            <path class="cls-11"
                d="M601.11,391.4a3.19,3.19,0,0,0-1.34-2.9,2.5,2.5,0,0,0-2.57.14l-8.79,5.08a7.35,7.35,0,0,0-3.15,5.95,3.19,3.19,0,0,0,1.34,2.9,2.2,2.2,0,0,0,1.09.29,3,3,0,0,0,1.48-.43l8.79-5.08A7.35,7.35,0,0,0,601.11,391.4ZM597.2,396l-8.79,5.08a1.16,1.16,0,0,1-1,.14,1.81,1.81,0,0,1-.58-1.58,5.87,5.87,0,0,1,2.39-4.63L598,390a1.49,1.49,0,0,1,.71-.23.69.69,0,0,1,.34.09,1.81,1.81,0,0,1,.58,1.58A5.91,5.91,0,0,1,597.2,396Z" />
            <path class="cls-11"
                d="M565.26,332.25a.76.76,0,0,0,0-.15.61.61,0,0,0,0-.14.78.78,0,0,0,0-.14l-.06-.13-.09-.11-.12-.1,0,0-89-51.46a.29.29,0,0,0-.1,0l-.08,0h-.34a.58.58,0,0,0-.17.06l-.1,0-.12.1a.44.44,0,0,0-.09.11l0,0a.38.38,0,0,0,0,.1.35.35,0,0,0-.05.08L457,346.72s0,0,0,0a.92.92,0,0,0,0,.16.66.66,0,0,0,0,.14.78.78,0,0,0,.05.14l.06.13a.47.47,0,0,0,.1.1.52.52,0,0,0,.11.1l0,0,89,51.46h.07a.45.45,0,0,0,.12.06.63.63,0,0,0,.19,0h0a.75.75,0,0,0,.41-.14s.06-.07.1-.1.11-.08.14-.14a1.21,1.21,0,0,0,0-.14l0-.05,17.81-66.26S565.25,332.27,565.26,332.25Zm-19,65-87.59-50.67L476,281.81l87.59,50.66Z" />
            <path class="cls-11"
                d="M576.11,403.9l0,0,.09,0,0,0,2.48-1.4,0,0,0,0,.12-.07a.83.83,0,0,0,.24-.21,3.05,3.05,0,0,0,1.18-2.62v-8.9l15.26-8.79c3.05-1.76,5.44-6.3,5.44-10.33v-48.7c0-2.24-.77-4-2.13-4.76a4,4,0,0,0-4.07.27L579,327.41c-2.39,1.38-4.46,4.68-5.26,8.4-3.07,14.26-14.69,56.74-14.83,57.24-.51,3,.14,5.39,1.73,6.5a3.28,3.28,0,0,0,1.91.6,4.83,4.83,0,0,0,2.4-.72l.9-.52a5,5,0,0,0,1,.84l6.83,3.94a2.9,2.9,0,0,0,1.45.43,2.11,2.11,0,0,0,.89-.21Zm-11.92-5.79a2.49,2.49,0,0,1-2.67.19c-1.08-.75-1.5-2.66-1.11-4.92,0-.15,1.45-5.3,3.41-12.57v13.13a7.5,7.5,0,0,0,1.11,3.75Zm14.69,1.33a1.64,1.64,0,0,1-.85,1.62l-.5.28c0-.11,0-.22,0-.34V383.62a7.22,7.22,0,0,0-3.08-5.81L567.87,374l1-.57a1.26,1.26,0,0,1,.82.21l6.83,3.94a5.75,5.75,0,0,1,2.31,4.5Zm-3.64-63.31c.7-3.27,2.53-6.24,4.54-7.4l15.89-9.18a2.57,2.57,0,0,1,2.55-.27c.87.51,1.37,1.76,1.37,3.44v48.7c0,3.48-2.1,7.52-4.68,9l-14.5,8.35v-6.71a7.2,7.2,0,0,0-3.08-5.82l-6.83-3.94a2.84,2.84,0,0,0-1.5-.38.77.77,0,0,0-.61.05l-2.59,1.4C569.32,360.18,573.55,344,575.24,336.13ZM576,401a1.79,1.79,0,0,1-.52,1.48l-.08,0a1.11,1.11,0,0,1-1-.16l-6.83-3.94a3.77,3.77,0,0,1-1-.87h0a6.14,6.14,0,0,1-1.34-3.61V376.56a1.83,1.83,0,0,1,.51-1.47L566,375a1.11,1.11,0,0,1,.92.16l6.83,3.94a5.7,5.7,0,0,1,2.32,4.49Z" />
            <path class="cls-11"
                d="M541.54,426.84l-10.45-6a2.11,2.11,0,0,0-2.11-.1,2.55,2.55,0,0,0-1.1,2.33v28a5.72,5.72,0,0,0,2.45,4.61h0l10.45,6a2.43,2.43,0,0,0,1.2.35,1.82,1.82,0,0,0,.91-.24,2.56,2.56,0,0,0,1.1-2.33v-28A5.73,5.73,0,0,0,541.54,426.84Zm.92,32.62c0,.6-.18.92-.33,1s-.47,0-.59-.11l-10.45-6a4.28,4.28,0,0,1-1.68-3.29V423c0-.6.18-.92.34-1s.47,0,.58.1l10.45,6a4.21,4.21,0,0,1,1.68,3.28Z" />
            <path class="cls-11"
                d="M536.32,427.45a4.05,4.05,0,0,0-4.14-.28c-1.37.8-2.16,2.56-2.16,4.83,0,4.11,2.43,8.73,5.53,10.52a4.93,4.93,0,0,0,2.44.72,3.38,3.38,0,0,0,1.7-.45c1.38-.79,2.17-2.55,2.17-4.83C541.86,433.86,539.42,429.24,536.32,427.45Zm2.61,14a2.65,2.65,0,0,1-2.61-.27c-2.64-1.52-4.78-5.65-4.78-9.2,0-1.71.51-3,1.4-3.51a1.94,1.94,0,0,1,.95-.24,3.39,3.39,0,0,1,1.66.52c2.64,1.52,4.78,5.64,4.78,9.19C540.33,439.68,539.82,441,538.93,441.47Z" />
            <path class="cls-11"
                d="M536.32,444.47a3.09,3.09,0,0,0-3.18-.19,4,4,0,0,0-1.66,3.64c0,3,1.79,6.4,4.07,7.72a3.75,3.75,0,0,0,1.85.54,2.54,2.54,0,0,0,1.33-.35,4,4,0,0,0,1.66-3.65C540.39,449.18,538.6,445.79,536.32,444.47Zm1.65,10a1.68,1.68,0,0,1-1.65-.2c-1.8-1-3.31-4-3.31-6.39a2.65,2.65,0,0,1,.89-2.33,1.17,1.17,0,0,1,.57-.14,2.19,2.19,0,0,1,1.08.34c1.8,1,3.32,4,3.32,6.39A2.63,2.63,0,0,1,538,454.51Z" />
            <path class="cls-11"
                d="M467,384l-10.44-6a2.06,2.06,0,0,0-2.11-.1,2.55,2.55,0,0,0-1.1,2.32v28a5.69,5.69,0,0,0,2.45,4.61l10.44,6a2.43,2.43,0,0,0,1.2.35,1.77,1.77,0,0,0,.91-.24,2.57,2.57,0,0,0,1.1-2.33v-28A5.71,5.71,0,0,0,467,384Zm.93,32.62c0,.6-.18.92-.34,1s-.47,0-.59-.11l-10.44-6a4.26,4.26,0,0,1-1.69-3.29v-28c0-.6.18-.91.34-1a.28.28,0,0,1,.15,0,1,1,0,0,1,.44.14l10.44,6a4.26,4.26,0,0,1,1.69,3.29Z" />
            <path class="cls-11"
                d="M461.81,384.57a4.07,4.07,0,0,0-4.14-.27c-1.37.8-2.16,2.56-2.16,4.83,0,4.1,2.43,8.72,5.54,10.52a4.9,4.9,0,0,0,2.43.72,3.41,3.41,0,0,0,1.71-.45c1.37-.8,2.16-2.56,2.16-4.83C467.35,391,464.92,386.37,461.81,384.57Zm2.61,14a2.66,2.66,0,0,1-2.61-.27c-2.63-1.53-4.78-5.65-4.78-9.2,0-1.72.52-3,1.41-3.51a1.79,1.79,0,0,1,.94-.25,3.53,3.53,0,0,1,1.67.52c2.63,1.52,4.77,5.65,4.77,9.2C465.82,396.8,465.31,398.08,464.42,398.6Z" />
            <path class="cls-11"
                d="M461.81,401.6a3.09,3.09,0,0,0-3.18-.2,4,4,0,0,0-1.65,3.65c0,3,1.78,6.39,4.07,7.71a3.67,3.67,0,0,0,1.85.55,2.7,2.7,0,0,0,1.33-.35,4,4,0,0,0,1.65-3.65C465.88,406.3,464.1,402.92,461.81,401.6Zm1.65,10a1.7,1.7,0,0,1-1.65-.2c-1.79-1-3.31-4-3.31-6.39a2.65,2.65,0,0,1,.89-2.33,1.22,1.22,0,0,1,.58-.15,2.23,2.23,0,0,1,1.08.35c1.79,1,3.31,4,3.31,6.39A2.63,2.63,0,0,1,463.46,411.64Z" />
            <path class="cls-11"
                d="M625.75,437.55c-1.59-.91-3.58-.78-5.62.39-4.3,2.49-7.8,9.15-7.8,14.85,0,3.16,1.07,5.59,2.94,6.67a4.55,4.55,0,0,0,2.29.6,6.69,6.69,0,0,0,3.33-1c4.31-2.49,7.81-9.15,7.81-14.85C628.7,441.06,627.63,438.63,625.75,437.55Zm-5.62,20.2a4,4,0,0,1-4.09.39c-1.39-.8-2.19-2.75-2.19-5.35,0-5.21,3.16-11.28,7-13.52a5.17,5.17,0,0,1,2.57-.79,3,3,0,0,1,1.53.39c1.39.8,2.19,2.75,2.19,5.35C627.18,449.44,624,455.51,620.13,457.75Z" />
            <path class="cls-11"
                d="M629.74,429.11c-2.7-1.56-6.12-1.3-9.61.72-7.66,4.42-13.89,16.3-13.89,26.48,0,5.51,1.84,9.73,5,11.59a7.66,7.66,0,0,0,3.85,1,11.58,11.58,0,0,0,5.75-1.73c7.67-4.42,13.9-16.3,13.9-26.48C634.79,435.19,633,431,629.74,429.11Zm-9.61,36.75c-3,1.74-5.87,2-8.08.72-2.72-1.58-4.29-5.32-4.29-10.27,0-9.69,5.89-21,13.13-25.16a10.14,10.14,0,0,1,5-1.52,6.17,6.17,0,0,1,3.1.8c2.72,1.58,4.29,5.32,4.29,10.27C633.27,450.4,627.37,461.68,620.13,465.86Z" />
            <path class="cls-11"
                d="M620.51,436.51a3.33,3.33,0,0,0,1.4-2.67c0-1-.62-1.5-1.4-1.06a3.35,3.35,0,0,0-1.39,2.67C619.12,436.48,619.74,437,620.51,436.51Z" />
            <path class="cls-11"
                d="M620.51,460.5a3.35,3.35,0,0,0-1.39,2.67c0,1,.62,1.5,1.39,1.06a3.33,3.33,0,0,0,1.4-2.67C621.91,460.53,621.29,460.06,620.51,460.5Z" />
            <path class="cls-11"
                d="M610.12,452.64a3.36,3.36,0,0,0-1.4,2.67c0,1,.63,1.5,1.4,1.06a3.36,3.36,0,0,0,1.4-2.67C611.52,452.67,610.89,452.2,610.12,452.64Z" />
            <path class="cls-11"
                d="M630.91,444.37a3.35,3.35,0,0,0,1.39-2.67c0-1-.62-1.5-1.39-1.06a3.36,3.36,0,0,0-1.4,2.67C629.51,444.34,630.14,444.81,630.91,444.37Z" />
            <path class="cls-11"
                d="M614.15,443.7c.55-1.05.55-2.23,0-2.64s-1.43.1-2,1.14-.55,2.22,0,2.64S613.61,444.74,614.15,443.7Z" />
            <path class="cls-11"
                d="M626.88,453.31c-.55,1.05-.55,2.23,0,2.64s1.43-.1,2-1.14.55-2.22,0-2.64S627.42,452.27,626.88,453.31Z" />
            <path class="cls-11"
                d="M612.18,461.8c-.55,1-.55,2.22,0,2.63s1.43-.09,2-1.14.55-2.22,0-2.63S612.72,460.76,612.18,461.8Z" />
            <path class="cls-11"
                d="M626.88,433.72c-.55,1-.55,2.22,0,2.63s1.43-.1,2-1.14.55-2.22,0-2.63S627.42,432.67,626.88,433.72Z" />
            <path class="cls-11"
                d="M902.93,277.68c-1.6-.92-3.59-.78-5.62.39-4.31,2.48-7.81,9.15-7.81,14.85,0,3.15,1.08,5.58,3,6.66a4.46,4.46,0,0,0,2.29.61,6.74,6.74,0,0,0,3.33-1c4.31-2.48,7.81-9.14,7.81-14.85C905.88,281.19,904.8,278.76,902.93,277.68Zm-5.62,20.19a4.06,4.06,0,0,1-4.1.39c-1.39-.8-2.18-2.75-2.18-5.34,0-5.22,3.16-11.29,7-13.53a5.26,5.26,0,0,1,2.57-.78,3.06,3.06,0,0,1,1.53.39c1.39.8,2.18,2.75,2.18,5.34C904.35,289.56,901.19,295.63,897.31,297.87Z" />
            <path class="cls-11"
                d="M906.91,269.24c-2.7-1.56-6.1-1.3-9.6.71-7.66,4.43-13.9,16.31-13.9,26.48,0,5.52,1.85,9.74,5.06,11.59a7.51,7.51,0,0,0,3.85,1,11.56,11.56,0,0,0,5.75-1.72c7.66-4.42,13.9-16.3,13.9-26.48C912,275.32,910.12,271.09,906.91,269.24ZM897.31,306c-3,1.73-5.88,2-8.08.71-2.73-1.57-4.29-5.31-4.29-10.27,0-9.69,5.89-21,13.13-25.16a10.17,10.17,0,0,1,5-1.51,6,6,0,0,1,3.09.8c2.73,1.57,4.29,5.32,4.29,10.27C910.44,290.52,904.55,301.81,897.31,306Z" />
            <path class="cls-11"
                d="M897.69,276.64a3.36,3.36,0,0,0,1.4-2.67c0-1-.63-1.5-1.4-1.06a3.36,3.36,0,0,0-1.4,2.67C896.29,276.61,896.92,277.08,897.69,276.64Z" />
            <path class="cls-11"
                d="M897.69,300.63a3.34,3.34,0,0,0-1.4,2.67c0,1,.63,1.5,1.4,1.05a3.34,3.34,0,0,0,1.4-2.67C899.09,300.66,898.46,300.18,897.69,300.63Z" />
            <path class="cls-11"
                d="M887.3,292.77a3.36,3.36,0,0,0-1.4,2.67c0,1,.63,1.5,1.4,1.05a3.33,3.33,0,0,0,1.39-2.66C888.69,292.8,888.07,292.33,887.3,292.77Z" />
            <path class="cls-11"
                d="M908.08,284.49a3.32,3.32,0,0,0,1.4-2.67c0-1-.62-1.5-1.4-1.05a3.34,3.34,0,0,0-1.39,2.67C906.69,284.47,907.31,284.94,908.08,284.49Z" />
            <path class="cls-11"
                d="M891.33,283.82c.54-1,.54-2.22,0-2.63s-1.43.1-2,1.14-.54,2.22,0,2.63S890.78,284.86,891.33,283.82Z" />
            <path class="cls-11"
                d="M904.05,293.44c-.54,1-.54,2.22,0,2.63s1.43-.09,2-1.14.54-2.22,0-2.63S904.6,292.4,904.05,293.44Z" />
            <path class="cls-11"
                d="M889.35,301.93c-.54,1-.54,2.22,0,2.63s1.43-.1,2-1.14.54-2.22,0-2.63S889.9,300.89,889.35,301.93Z" />
            <path class="cls-11"
                d="M904.05,273.84c-.54,1-.54,2.22,0,2.64s1.43-.1,2-1.14.54-2.23,0-2.64S904.6,272.8,904.05,273.84Z" />
            <path class="cls-11"
                d="M943.53,251.6c-4.3,2.49-7.8,9.15-7.8,14.85,0,3.15,1.07,5.58,2.94,6.67a4.55,4.55,0,0,0,2.29.6,6.67,6.67,0,0,0,3.34-1c4.3-2.48,7.8-9.14,7.8-14.84,0-3.16-1.07-5.59-3-6.67C947.56,250.29,945.57,250.43,943.53,251.6Zm7.05,6.28c0,5.21-3.16,11.28-7.05,13.52a4.06,4.06,0,0,1-4.1.4c-1.38-.81-2.18-2.75-2.18-5.35,0-5.22,3.16-11.29,7-13.53a5.19,5.19,0,0,1,2.56-.78,3,3,0,0,1,1.53.39C949.78,253.33,950.58,255.28,950.58,257.88Z" />
            <path class="cls-11"
                d="M943.53,243.48c-7.66,4.43-13.89,16.31-13.89,26.49,0,5.51,1.84,9.73,5.05,11.59a7.65,7.65,0,0,0,3.85,1,11.59,11.59,0,0,0,5.76-1.72c7.66-4.42,13.89-16.3,13.89-26.48,0-5.51-1.84-9.74-5.05-11.59C950.43,241.21,947,241.46,943.53,243.48Zm13.14,10.88c0,9.69-5.9,21-13.14,25.16-3,1.74-5.87,2-8.08.72-2.72-1.58-4.29-5.32-4.29-10.27,0-9.7,5.89-21,13.14-25.17a10.16,10.16,0,0,1,5-1.51,6.17,6.17,0,0,1,3.1.8C955.1,245.67,956.67,249.41,956.67,254.36Z" />
            <path class="cls-11"
                d="M943.91,250.17a3.36,3.36,0,0,0,1.4-2.67c0-1-.63-1.5-1.4-1.06a3.35,3.35,0,0,0-1.39,2.67C942.52,250.14,943.14,250.61,943.91,250.17Z" />
            <path class="cls-11"
                d="M943.91,274.16a3.34,3.34,0,0,0-1.39,2.67c0,1,.62,1.5,1.39,1.05a3.34,3.34,0,0,0,1.4-2.66C945.31,274.19,944.68,273.71,943.91,274.16Z" />
            <path class="cls-11"
                d="M933.52,266.3a3.36,3.36,0,0,0-1.4,2.67c0,1,.63,1.5,1.4,1.06a3.36,3.36,0,0,0,1.4-2.67C934.92,266.33,934.29,265.86,933.52,266.3Z" />
            <path class="cls-11"
                d="M954.31,258a3.33,3.33,0,0,0,1.39-2.66c0-1-.62-1.5-1.39-1.06a3.36,3.36,0,0,0-1.4,2.67C952.91,258,953.54,258.47,954.31,258Z" />
            <path class="cls-11"
                d="M937.55,257.35c.55-1,.55-2.22,0-2.63s-1.43.1-2,1.14-.55,2.22,0,2.63S937,258.4,937.55,257.35Z" />
            <path class="cls-11"
                d="M950.28,267c-.55,1-.55,2.22,0,2.64s1.43-.1,2-1.14.55-2.23,0-2.64S950.82,265.93,950.28,267Z" />
            <path class="cls-11"
                d="M935.58,275.46c-.55,1-.55,2.22,0,2.63s1.43-.1,2-1.14.55-2.22,0-2.63S936.12,274.42,935.58,275.46Z" />
            <path class="cls-11"
                d="M952.25,248.87c.55-1,.55-2.22,0-2.64s-1.43.1-2,1.14-.55,2.23,0,2.64S951.71,249.91,952.25,248.87Z" />
            <path class="cls-11"
                d="M678,406c-1.59-.92-3.59-.78-5.62.39-4.3,2.48-7.81,9.15-7.81,14.85,0,3.15,1.08,5.58,2.95,6.66a4.46,4.46,0,0,0,2.29.61,6.71,6.71,0,0,0,3.33-1c4.31-2.48,7.81-9.14,7.81-14.85C681,409.46,679.92,407,678,406Zm-5.62,20.19a4.06,4.06,0,0,1-4.1.39c-1.38-.8-2.18-2.75-2.18-5.34,0-5.22,3.16-11.29,7-13.53a5.28,5.28,0,0,1,2.57-.79,3.06,3.06,0,0,1,1.53.4c1.39.8,2.19,2.75,2.19,5.34C679.47,417.83,676.31,423.9,672.42,426.14Z" />
            <path class="cls-11"
                d="M682,397.51c-2.7-1.56-6.11-1.31-9.61.71-7.66,4.43-13.89,16.31-13.89,26.48,0,5.51,1.84,9.74,5.05,11.59a7.56,7.56,0,0,0,3.85,1,11.66,11.66,0,0,0,5.75-1.72c7.67-4.42,13.9-16.3,13.9-26.48C687.08,403.59,685.24,399.36,682,397.51Zm-9.61,36.75c-3,1.74-5.87,2-8.08.71-2.73-1.57-4.29-5.32-4.29-10.27,0-9.69,5.89-21,13.13-25.16a10.09,10.09,0,0,1,5-1.51,6,6,0,0,1,3.09.8c2.73,1.57,4.29,5.32,4.29,10.27C685.55,418.79,679.66,430.08,672.42,434.26Z" />
            <path class="cls-11"
                d="M672.8,404.9a3.34,3.34,0,0,0,1.4-2.66c0-1-.63-1.5-1.4-1.06a3.35,3.35,0,0,0-1.39,2.67C671.41,404.88,672,405.35,672.8,404.9Z" />
            <path class="cls-11"
                d="M672.8,428.9a3.34,3.34,0,0,0-1.39,2.67c0,1,.62,1.5,1.39,1.05a3.34,3.34,0,0,0,1.4-2.67C674.2,428.92,673.57,428.45,672.8,428.9Z" />
            <path class="cls-11"
                d="M662.41,421a3.34,3.34,0,0,0-1.4,2.67c0,1,.63,1.5,1.4,1.05a3.34,3.34,0,0,0,1.4-2.66C663.81,421.07,663.18,420.59,662.41,421Z" />
            <path class="cls-11"
                d="M683.2,412.76a3.34,3.34,0,0,0,1.39-2.67c0-1-.62-1.5-1.39-1a3.32,3.32,0,0,0-1.4,2.67C681.8,412.73,682.42,413.21,683.2,412.76Z" />
            <path class="cls-11"
                d="M666.44,412.09c.55-1,.55-2.22,0-2.63s-1.43.1-2,1.14-.55,2.22,0,2.63S665.9,413.13,666.44,412.09Z" />
            <path class="cls-11"
                d="M679.16,421.71c-.54,1-.54,2.22,0,2.63s1.43-.09,2-1.14.54-2.22,0-2.63S679.71,420.67,679.16,421.71Z" />
            <path class="cls-11"
                d="M664.47,430.2c-.55,1-.55,2.22,0,2.63s1.43-.1,2-1.14.55-2.22,0-2.63S665,429.15,664.47,430.2Z" />
            <path class="cls-11"
                d="M679.16,402.11c-.54,1-.54,2.22,0,2.63s1.43-.09,2-1.14.54-2.22,0-2.63S679.71,401.07,679.16,402.11Z" />
            <path class="cls-11"
                d="M724.27,379.48c-1.6-.92-3.6-.78-5.63.39-4.3,2.49-7.8,9.15-7.8,14.85,0,3.15,1.07,5.58,2.95,6.67a4.49,4.49,0,0,0,2.28.6,6.77,6.77,0,0,0,3.34-1c4.3-2.48,7.8-9.14,7.8-14.85C727.21,383,726.14,380.56,724.27,379.48Zm-5.63,20.19a4.07,4.07,0,0,1-4.09.4c-1.39-.81-2.19-2.75-2.19-5.35,0-5.22,3.16-11.29,7-13.53a5.23,5.23,0,0,1,2.57-.78,3,3,0,0,1,1.52.39c1.39.8,2.19,2.75,2.19,5.34C725.69,391.36,722.53,397.43,718.64,399.67Z" />
            <path class="cls-11"
                d="M728.25,371c-2.7-1.56-6.11-1.31-9.61.71-7.66,4.43-13.89,16.31-13.89,26.49,0,5.51,1.84,9.73,5,11.58a7.56,7.56,0,0,0,3.85,1,11.59,11.59,0,0,0,5.76-1.72c7.66-4.42,13.89-16.3,13.89-26.48C733.3,377.12,731.46,372.89,728.25,371Zm-9.61,36.75c-3,1.73-5.87,2-8.08.71-2.72-1.57-4.29-5.31-4.29-10.26,0-9.7,5.89-21,13.14-25.17a10.17,10.17,0,0,1,5-1.51,6.16,6.16,0,0,1,3.09.8c2.72,1.57,4.29,5.32,4.29,10.27C731.78,392.32,725.89,403.61,718.64,407.79Z" />
            <path class="cls-11"
                d="M719,378.44a3.35,3.35,0,0,0,1.39-2.67c0-1-.62-1.5-1.39-1.06a3.33,3.33,0,0,0-1.4,2.67C717.63,378.41,718.25,378.88,719,378.44Z" />
            <path class="cls-11"
                d="M719,402.43a3.32,3.32,0,0,0-1.4,2.67c0,1,.62,1.5,1.4,1a3.34,3.34,0,0,0,1.39-2.67C720.42,402.46,719.8,402,719,402.43Z" />
            <path class="cls-11"
                d="M708.63,394.57a3.35,3.35,0,0,0-1.39,2.67c0,1,.62,1.5,1.39,1.06a3.36,3.36,0,0,0,1.4-2.67C710,394.6,709.4,394.13,708.63,394.57Z" />
            <path class="cls-11"
                d="M729.42,386.29a3.34,3.34,0,0,0,1.4-2.66c0-1-.63-1.51-1.4-1.06a3.34,3.34,0,0,0-1.4,2.67C728,386.27,728.65,386.74,729.42,386.29Z" />
            <path class="cls-11"
                d="M712.66,385.62c.55-1,.55-2.22,0-2.63s-1.43.1-2,1.14-.55,2.22,0,2.63S712.12,386.66,712.66,385.62Z" />
            <path class="cls-11"
                d="M725.39,395.24c-.55,1-.55,2.22,0,2.64s1.43-.1,2-1.15.55-2.22,0-2.63S725.93,394.2,725.39,395.24Z" />
            <path class="cls-11"
                d="M710.69,403.73c-.55,1-.55,2.22,0,2.63s1.43-.1,2-1.14.55-2.22,0-2.63S711.23,402.69,710.69,403.73Z" />
            <path class="cls-11"
                d="M725.39,375.64c-.55,1.05-.55,2.22,0,2.64s1.43-.1,2-1.14.55-2.22,0-2.64S725.93,374.6,725.39,375.64Z" />
            <path class="cls-11"
                d="M944.89,207.26a.75.75,0,0,0,.38.1.72.72,0,0,0,.38-.1l12-6.92a.76.76,0,0,0,.39-.66v-8.79a.77.77,0,0,0-1.15-.66l-12,6.91a.76.76,0,0,0-.38.66v8.8A.76.76,0,0,0,944.89,207.26Zm1.14-9,10.46-6v7l-10.46,6Z" />
            <path class="cls-11"
                d="M587.84,436.14l-12,6.92a.76.76,0,0,0-.38.66v8.79a.76.76,0,0,0,.38.67.77.77,0,0,0,.76,0l12-6.92a.76.76,0,0,0,.38-.66v-8.8a.76.76,0,0,0-.38-.66A.79.79,0,0,0,587.84,436.14Zm-.38,9-10.46,6v-7l10.46-6Z" />
            <path class="cls-11"
                d="M478,272l.88.5a.76.76,0,1,0,.76-1.32l-.88-.5a.75.75,0,0,0-1,.27A.77.77,0,0,0,478,272Z" />
            <path class="cls-11"
                d="M546.23,311.33l1.78,1a.76.76,0,0,0,.38.11.77.77,0,0,0,.38-1.43L547,310a.76.76,0,0,0-.77,1.32Z" />
            <path class="cls-11"
                d="M509,289.86l1.78,1a.76.76,0,0,0,.38.11.77.77,0,0,0,.38-1.43l-1.77-1a.76.76,0,0,0-.77,1.32Z" />
            <path class="cls-11"
                d="M503.72,286.8l1.77,1a.75.75,0,0,0,.38.1.76.76,0,0,0,.38-1.42l-1.77-1a.75.75,0,0,0-1,.28A.77.77,0,0,0,503.72,286.8Z" />
            <path class="cls-11"
                d="M519.66,296l1.77,1a.75.75,0,0,0,.38.1.76.76,0,0,0,.39-1.42l-1.77-1a.76.76,0,1,0-.77,1.32Z" />
            <path class="cls-11"
                d="M514.35,292.93l1.77,1a.77.77,0,0,0,1-.28.76.76,0,0,0-.28-1l-1.77-1a.76.76,0,0,0-.76,1.32Z" />
            <path class="cls-11"
                d="M487.78,277.59l1.77,1a.75.75,0,0,0,.38.1.77.77,0,0,0,.66-.38.76.76,0,0,0-.28-1l-1.77-1a.76.76,0,0,0-1,.28A.76.76,0,0,0,487.78,277.59Z" />
            <path class="cls-11"
                d="M493.09,280.66l1.77,1a.75.75,0,0,0,1-.27.77.77,0,0,0-.28-1.05l-1.77-1a.76.76,0,0,0-.76,1.32Z" />
            <path class="cls-11"
                d="M498.41,283.73l1.77,1a.77.77,0,0,0,1-.28.77.77,0,0,0-.28-1l-1.77-1a.76.76,0,1,0-.76,1.32Z" />
            <path class="cls-11"
                d="M562.18,320.53l1.77,1a.75.75,0,0,0,.38.1.77.77,0,0,0,.66-.38.76.76,0,0,0-.28-1l-1.77-1a.77.77,0,0,0-1,.28A.76.76,0,0,0,562.18,320.53Z" />
            <path class="cls-11"
                d="M556.86,317.47l1.78,1a.75.75,0,0,0,.38.1.77.77,0,0,0,.66-.38.76.76,0,0,0-.28-1l-1.77-1a.76.76,0,1,0-.77,1.32Z" />
            <path class="cls-11"
                d="M525,299.06l1.77,1a.75.75,0,0,0,.38.1.77.77,0,0,0,.66-.38.76.76,0,0,0-.28-1l-1.77-1a.76.76,0,0,0-1,.28A.76.76,0,0,0,525,299.06Z" />
            <path class="cls-11"
                d="M551.55,314.4l1.77,1a.77.77,0,0,0,1-.28.76.76,0,0,0-.28-1l-1.77-1a.77.77,0,0,0-1,.28A.76.76,0,0,0,551.55,314.4Z" />
            <path class="cls-11"
                d="M482.46,274.53l1.77,1a.77.77,0,0,0,1-.28.76.76,0,0,0-.27-1l-1.78-1a.76.76,0,0,0-1,.28A.77.77,0,0,0,482.46,274.53Z" />
            <path class="cls-11"
                d="M530.29,302.13l1.77,1a.76.76,0,0,0,.38.11.75.75,0,0,0,.66-.39.76.76,0,0,0-.28-1l-1.77-1a.76.76,0,0,0-.76,1.32Z" />
            <path class="cls-11"
                d="M535.61,305.2l1.77,1a.77.77,0,0,0,1-.28.77.77,0,0,0-.28-1l-1.77-1a.76.76,0,0,0-.76,1.32Z" />
            <path class="cls-11"
                d="M540.92,308.27l1.77,1a.75.75,0,0,0,.38.1.76.76,0,0,0,.38-1.42l-1.77-1a.75.75,0,0,0-1,.27A.78.78,0,0,0,540.92,308.27Z" />
            <path class="cls-11"
                d="M567.49,323.6l.88.51a.75.75,0,0,0,.38.1.76.76,0,0,0,.38-1.42l-.88-.51a.76.76,0,0,0-.76,1.32Z" />
            <path class="cls-2"
                d="M475,328a.75.75,0,0,1-.66-.39.76.76,0,0,1,.28-1l28.05-16.06a.76.76,0,1,1,.76,1.32L475.4,327.91A.76.76,0,0,1,475,328Z" />
            <path class="cls-2"
                d="M480.69,332.26a.75.75,0,0,1-.66-.39.76.76,0,0,1,.28-1l21.44-12.27a.76.76,0,1,1,.75,1.32l-21.43,12.28A.86.86,0,0,1,480.69,332.26Z" />
            <path class="cls-1"
                d="M213.62,979.18h0a46,46,0,0,1-6.18-.51l-1.26-.21a1.21,1.21,0,1,1,.43-2.39l1.19.2a41.33,41.33,0,0,0,5.85.48,1.22,1.22,0,0,1,0,2.43ZM412.74,979a1.22,1.22,0,0,1,0-2.43c2.45,0,4.86-.08,7.25-.18a1.26,1.26,0,0,1,1.26,1.17,1.22,1.22,0,0,1-1.17,1.26q-3.6.13-7.31.18Zm-7.28,0h0c-2.4,0-4.84-.13-7.31-.25a1.21,1.21,0,0,1-1.15-1.27,1.18,1.18,0,0,1,1.27-1.15c2.44.11,4.86.2,7.24.25a1.21,1.21,0,0,1,0,2.42Zm-184.59-.35a1.21,1.21,0,0,1-.2-2.41,37.54,37.54,0,0,0,6.81-1.81,1.21,1.21,0,1,1,.84,2.28,40.32,40.32,0,0,1-7.25,1.93Zm206.42-.18a1.21,1.21,0,0,1-.08-2.42c2.45-.18,4.85-.38,7.22-.63a1.24,1.24,0,0,1,1.33,1.09,1.21,1.21,0,0,1-1.08,1.33c-2.39.24-4.83.45-7.3.63Zm-36.37-.18h-.1c-2.41-.19-4.83-.42-7.29-.68a1.21,1.21,0,0,1,.26-2.41q3.65.39,7.22.67a1.22,1.22,0,0,1-.09,2.43Zm50.86-1.3a1.22,1.22,0,0,1-.16-2.42c2.44-.33,4.82-.69,7.16-1.08a1.22,1.22,0,0,1,1.4,1,1.21,1.21,0,0,1-1,1.4q-3.56.6-7.24,1.1Zm-65.34-.27h-.17q-3.58-.49-7.23-1.1a1.22,1.22,0,0,1-1-1.4,1.2,1.2,0,0,1,1.4-1q3.6.6,7.16,1.09a1.22,1.22,0,0,1,1,1.37A1.21,1.21,0,0,1,376.44,976.69Zm-177-.35a1.1,1.1,0,0,1-.5-.11,21.9,21.9,0,0,1-6.37-4.25,1.22,1.22,0,0,1,0-1.72,1.2,1.2,0,0,1,1.71,0,19.56,19.56,0,0,0,5.68,3.78,1.21,1.21,0,0,1,.6,1.61A1.2,1.2,0,0,1,199.44,976.34Zm256.71-1.81a1.21,1.21,0,0,1-1.19-1,1.22,1.22,0,0,1,.94-1.43q3.63-.74,7.07-1.58a1.23,1.23,0,0,1,1.47.9,1.22,1.22,0,0,1-.9,1.46q-3.48.86-7.15,1.6A1,1,0,0,1,456.15,974.53Zm-94.08-.23-.23,0c-2.38-.46-4.76-1-7.16-1.5a1.21,1.21,0,1,1,.53-2.37c2.37.53,4.74,1,7.09,1.49a1.21,1.21,0,0,1-.23,2.4Zm-127.62-.7a1.21,1.21,0,0,1-.63-2.25,37.46,37.46,0,0,0,5.65-4.2,1.21,1.21,0,0,1,1.63,1.8,40,40,0,0,1-6,4.48A1.22,1.22,0,0,1,234.45,973.6Zm113.41-2.48a1,1,0,0,1-.3,0q-3.51-.89-7.07-1.89a1.22,1.22,0,0,1,.66-2.34c2.35.67,4.68,1.29,7,1.88a1.21,1.21,0,0,1-.3,2.39Zm122.44,0a1.21,1.21,0,0,1-.33-2.38q3.58-1,6.92-2.12a1.21,1.21,0,0,1,1.53.77,1.22,1.22,0,0,1-.77,1.54c-2.25.74-4.59,1.46-7,2.14A1.26,1.26,0,0,1,470.3,971.1Zm-136.46-3.94a1.13,1.13,0,0,1-.36-.06q-3.47-1.07-7-2.27a1.21,1.21,0,1,1,.78-2.29c2.31.79,4.6,1.53,6.89,2.25a1.21,1.21,0,0,1-.36,2.37Zm150.29-.63a1.21,1.21,0,0,1-.43-2.34c2.29-.88,4.54-1.81,6.67-2.76a1.22,1.22,0,0,1,1,2.22c-2.17,1-4.46,1.91-6.79,2.8A1.14,1.14,0,0,1,484.13,966.53Zm-294.64-.26a1.23,1.23,0,0,1-1.15-.82,16.12,16.12,0,0,1-.7-7.75,1.21,1.21,0,1,1,2.39.36,15.08,15.08,0,0,0-.15,2.11,13.5,13.5,0,0,0,.75,4.48,1.21,1.21,0,0,1-.74,1.55A1.12,1.12,0,0,1,189.49,966.27Zm55.68-2.39a1.19,1.19,0,0,1-.72-.23,1.22,1.22,0,0,1-.25-1.7,34.94,34.94,0,0,0,3.6-6,1.2,1.2,0,0,1,1.61-.59,1.22,1.22,0,0,1,.59,1.61,37.77,37.77,0,0,1-3.85,6.45A1.2,1.2,0,0,1,245.17,963.88Zm74.89-1.42a1.25,1.25,0,0,1-.42-.08q-3.4-1.26-6.82-2.63a1.22,1.22,0,0,1,.9-2.26q3.39,1.37,6.77,2.61a1.22,1.22,0,0,1-.43,2.36Zm177.36-1.89a1.19,1.19,0,0,1-1.07-.64,1.21,1.21,0,0,1,.5-1.64c2.25-1.2,4.33-2.42,6.18-3.63a1.21,1.21,0,0,1,1.68.34,1.22,1.22,0,0,1-.35,1.69c-1.91,1.25-4.06,2.51-6.37,3.74A1.2,1.2,0,0,1,497.42,960.57ZM306.55,957a1.18,1.18,0,0,1-.48-.1q-3.33-1.42-6.68-3a1.22,1.22,0,1,1,1-2.21q3.31,1.53,6.62,3a1.21,1.21,0,0,1-.48,2.32Zm202.93-4.56a1.16,1.16,0,0,1-.89-.4,1.21,1.21,0,0,1,.07-1.71,20.25,20.25,0,0,0,2.92-3.21,1.22,1.22,0,0,1,2,1.4,22.81,22.81,0,0,1-3.27,3.6A1.18,1.18,0,0,1,509.48,952.47Zm-318.14-.16a1.32,1.32,0,0,1-.63-.17,1.23,1.23,0,0,1-.41-1.67,26.28,26.28,0,0,1,4.89-5.84,1.21,1.21,0,0,1,1.62,1.81,23.65,23.65,0,0,0-4.43,5.29A1.23,1.23,0,0,1,191.34,952.31Zm101.91-1.23a1.18,1.18,0,0,1-.48-.1q-3.39-1.47-6.69-2.79a1.22,1.22,0,0,1-.67-1.58,1.23,1.23,0,0,1,1.58-.68q3.31,1.34,6.75,2.82a1.22,1.22,0,0,1-.49,2.33Zm-42-.32-.26,0a1.2,1.2,0,0,1-.92-1.44,30.7,30.7,0,0,0,.72-6.51,1.42,1.42,0,0,1,1.2-1.44h0c.65,0,1.19.3,1.2,1v.24a33.48,33.48,0,0,1-.77,7.27A1.22,1.22,0,0,1,251.23,950.76Zm28.5-5.09a1.14,1.14,0,0,1-.41-.07q-3.49-1.27-6.85-2.35a1.22,1.22,0,0,1-.78-1.53,1.21,1.21,0,0,1,1.53-.78q3.39,1.09,6.93,2.38a1.21,1.21,0,0,1-.42,2.35Zm-77.81-3.14a1.2,1.2,0,0,1-1.06-.62,1.21,1.21,0,0,1,.46-1.65,44.14,44.14,0,0,1,6.8-3.1,1.21,1.21,0,0,1,.83,2.28,42.76,42.76,0,0,0-6.44,2.93A1.14,1.14,0,0,1,201.92,942.53Zm64-1.33a1.26,1.26,0,0,1-.33-.05q-3.58-1-7-1.81a1.2,1.2,0,0,1-.9-1.46,1.19,1.19,0,0,1,1.45-.9q3.47.81,7.11,1.83a1.22,1.22,0,0,1-.33,2.39Zm-14.17-3.31-.23,0c-2.42-.45-4.82-.82-7.13-1.11a1.21,1.21,0,1,1,.31-2.4c1.65.2,3.35.45,5.07.74a29.3,29.3,0,0,0-2.47-6.15,1.22,1.22,0,0,1,.49-1.65,1.23,1.23,0,0,1,1.65.5,32.45,32.45,0,0,1,2.77,7,1.18,1.18,0,0,1,0,.72,1.22,1.22,0,0,1-.43,2.35Zm-36.18-.37a1.21,1.21,0,0,1-.26-2.4,67.65,67.65,0,0,1,7.31-1.17,1.23,1.23,0,0,1,1.34,1.07,1.22,1.22,0,0,1-1.08,1.34,65.49,65.49,0,0,0-7.06,1.13A1.07,1.07,0,0,1,215.53,937.52Zm21.72-1.42h-.07c-1.92-.12-3.85-.18-5.73-.18l-1.46,0h0a1.22,1.22,0,0,1,0-2.43h1.48c1.94,0,3.91.06,5.89.18a1.21,1.21,0,0,1-.08,2.42Zm7-12.5a1.22,1.22,0,0,1-.92-.43,38.66,38.66,0,0,0-5-4.92,1.22,1.22,0,1,1,1.54-1.88,42.15,42.15,0,0,1,5.36,5.22,1.23,1.23,0,0,1-.14,1.72A1.24,1.24,0,0,1,244.21,923.6Zm-11.16-9.24a1.29,1.29,0,0,1-.63-.17,57,57,0,0,0-6.33-3.27,1.21,1.21,0,1,1,1-2.22,63.78,63.78,0,0,1,6.6,3.4,1.22,1.22,0,0,1,.42,1.66A1.2,1.2,0,0,1,233.05,914.36Zm-13.26-6a1.39,1.39,0,0,1-.4-.06c-2.28-.79-4.58-1.54-6.89-2.28a1.21,1.21,0,1,1,.74-2.31q3.48,1.11,6.94,2.29a1.22,1.22,0,0,1,.76,1.54A1.23,1.23,0,0,1,219.79,908.4ZM205.91,904a1.48,1.48,0,0,1-.35-.05c-2.32-.7-4.65-1.37-7-2a1.21,1.21,0,0,1,.65-2.33c2.34.66,4.68,1.33,7,2a1.22,1.22,0,0,1-.35,2.38Zm-14-4a1.17,1.17,0,0,1-.32,0c-2.35-.63-4.69-1.23-7-1.82a1.21,1.21,0,1,1,.6-2.35c2.35.59,4.7,1.2,7.07,1.82a1.22,1.22,0,0,1-.31,2.39Zm-14.13-3.56a1,1,0,0,1-.29,0q-3.55-.85-7.08-1.66a1.22,1.22,0,1,1,.55-2.37q3.53.81,7.1,1.67a1.22,1.22,0,0,1-.28,2.4Zm-14.2-3.27a1.24,1.24,0,0,1-.27,0l-7.11-1.56a1.22,1.22,0,0,1-.93-1.44,1.2,1.2,0,0,1,1.44-.93l7.13,1.56a1.21,1.21,0,0,1-.26,2.4Zm-14.25-3.08a1.07,1.07,0,0,1-.25,0l-7.13-1.5a1.22,1.22,0,0,1,.5-2.38l7.13,1.51a1.21,1.21,0,0,1-.25,2.4Zm-14.26-3a1.07,1.07,0,0,1-.25,0l-7.14-1.52a1.21,1.21,0,1,1,.52-2.37l7.12,1.51a1.22,1.22,0,0,1-.25,2.41ZM120.82,884l-.27,0c-2.44-.55-4.82-1.09-7.12-1.64A1.21,1.21,0,1,1,114,880c2.29.54,4.66,1.09,7.09,1.63a1.21,1.21,0,0,1,.92,1.45A1.22,1.22,0,0,1,120.82,884Zm-14.18-3.39a1,1,0,0,1-.3,0c-2.47-.64-4.83-1.29-7.06-2a1.21,1.21,0,1,1,.68-2.32c2.22.65,4.55,1.3,7,1.93a1.21,1.21,0,0,1,.87,1.48A1.22,1.22,0,0,1,106.64,880.65Zm-14-4.19a1.18,1.18,0,0,1-.41-.07c-2.55-.92-4.86-1.85-6.85-2.79a1.21,1.21,0,1,1,1-2.2c1.93.91,4.16,1.82,6.64,2.7a1.22,1.22,0,0,1-.41,2.36Zm-13.1-6.3a1.28,1.28,0,0,1-.65-.18c-2.12-1.34-4.16-2.75-6.07-4.19a1.21,1.21,0,0,1,1.46-1.94c1.86,1.4,3.85,2.77,5.91,4.07a1.21,1.21,0,0,1-.65,2.24ZM68,861.39a1.19,1.19,0,0,1-.81-.31A73.85,73.85,0,0,1,62,855.84a1.21,1.21,0,1,1,1.8-1.63c1.58,1.75,3.28,3.45,5.06,5.07A1.21,1.21,0,0,1,68.9,861,1.19,1.19,0,0,1,68,861.39Zm-9.73-10.8a1.18,1.18,0,0,1-1-.5,70,70,0,0,1-4-6.2,1.21,1.21,0,0,1,2.1-1.22,66,66,0,0,0,3.9,6,1.23,1.23,0,0,1-.27,1.7A1.16,1.16,0,0,1,58.27,850.59ZM51,838a1.22,1.22,0,0,1-1.11-.72,67.82,67.82,0,0,1-2.61-6.94,1.21,1.21,0,0,1,2.31-.73,66.2,66.2,0,0,0,2.52,6.69,1.21,1.21,0,0,1-.62,1.6A1.19,1.19,0,0,1,51,838Zm-4.4-13.86a1.22,1.22,0,0,1-1.19-1,73,73,0,0,1-1.1-7.32,1.21,1.21,0,0,1,1.09-1.33,1.24,1.24,0,0,1,1.33,1.09,68.32,68.32,0,0,0,1.06,7.08,1.21,1.21,0,0,1-.95,1.43A1,1,0,0,1,46.61,824.14ZM45.2,809.66h0a1.2,1.2,0,0,1-1.2-1.22,47.69,47.69,0,0,1,.56-7.46,1.21,1.21,0,0,1,2.39.43,45.85,45.85,0,0,0-.52,7.05A1.21,1.21,0,0,1,45.2,809.66Z" />
            <path class="cls-1"
                d="M637.2,839.61a1.05,1.05,0,0,1-1-.6c-.2-.42-.39-.83-.57-1.25a1.05,1.05,0,1,1,1.93-.85c.17.4.36.8.55,1.2a1,1,0,0,1-1,1.5Zm-2.75-7.15a1.07,1.07,0,0,1-1-.76,44.16,44.16,0,0,1-1.38-6.34,1.06,1.06,0,0,1,.9-1.19,1.08,1.08,0,0,1,1.19.9,41.25,41.25,0,0,0,1.32,6,1.06,1.06,0,0,1-.72,1.31A1,1,0,0,1,634.45,832.46ZM632.76,820h0a1.07,1.07,0,0,1-1-1.1,35.24,35.24,0,0,1,.83-6.46,1.06,1.06,0,1,1,2.06.46,32.83,32.83,0,0,0-.77,6.08A1.06,1.06,0,0,1,632.76,820Zm2.8-12.27a1.11,1.11,0,0,1-.43-.09,1.06,1.06,0,0,1-.53-1.4,32.15,32.15,0,0,1,3.25-5.66,1.06,1.06,0,0,1,1.72,1.23,30.63,30.63,0,0,0-3.05,5.29A1,1,0,0,1,635.56,807.69Zm7.32-10.23a1.07,1.07,0,0,1-.77-.34,1,1,0,0,1,0-1.49,35.57,35.57,0,0,1,5.14-4,1,1,0,0,1,1.45.32,1.05,1.05,0,0,1-.31,1.46,33.73,33.73,0,0,0-4.84,3.77A1,1,0,0,1,642.88,797.46Zm74.41-.53q-1.15,0-2.34-.06a1.06,1.06,0,0,1-1-1.11,1,1,0,0,1,1.11-1,40.44,40.44,0,0,0,6.16-.14,1.06,1.06,0,1,1,.21,2.1A40,40,0,0,1,717.29,796.93Zm-8.57-.82-.19,0a61.93,61.93,0,0,1-6.27-1.52,1.06,1.06,0,1,1,.61-2,60.14,60.14,0,0,0,6,1.47,1.05,1.05,0,0,1,.85,1.22A1.07,1.07,0,0,1,708.72,796.11Zm18.81-.59a1.06,1.06,0,0,1-.3-2.07,32,32,0,0,0,5.67-2.27,1.05,1.05,0,1,1,1,1.87,32.93,32.93,0,0,1-6,2.42A1,1,0,0,1,727.53,795.52Zm-30.95-3a1.07,1.07,0,0,1-.39-.07l-1.14-.45c-1.56-.65-3.15-1.23-4.74-1.76a1.05,1.05,0,1,1,.67-2c1.62.54,3.26,1.14,4.87,1.8l1.11.44a1.06,1.06,0,0,1,.6,1.37A1,1,0,0,1,696.58,792.55Zm-43.12-1.95a1.05,1.05,0,0,1-.42-2,41.45,41.45,0,0,1,6.14-2.09,1.05,1.05,0,1,1,.53,2,39.6,39.6,0,0,0-5.83,2A1,1,0,0,1,653.46,790.6Zm85.24-.85a1.05,1.05,0,0,1-.65-1.88,37.43,37.43,0,0,0,4.51-4.18,1.07,1.07,0,0,1,1.5-.06,1.06,1.06,0,0,1,.05,1.49,39.19,39.19,0,0,1-4.76,4.41A1.06,1.06,0,0,1,738.7,789.75Zm-54.15-1.13-.24,0a58.45,58.45,0,0,0-6.13-1.09,1.07,1.07,0,0,1-.92-1.18,1,1,0,0,1,1.18-.92,62.54,62.54,0,0,1,6.34,1.13,1.05,1.05,0,0,1,.8,1.26A1.06,1.06,0,0,1,684.55,788.62Zm-18.88-1.21a1.05,1.05,0,0,1-.12-2.1,52.13,52.13,0,0,1,5.91-.34H672a1.05,1.05,0,0,1,1,1.07,1.1,1.1,0,0,1-1.07,1h-.53a48.19,48.19,0,0,0-5.66.32Zm81.62-6.88a1,1,0,0,1-.6-.19,1,1,0,0,1-.26-1.47,58.45,58.45,0,0,0,3.26-5.28,1.05,1.05,0,1,1,1.85,1,57.93,57.93,0,0,1-3.38,5.48A1.07,1.07,0,0,1,747.29,780.53Zm6.1-11.07a1.06,1.06,0,0,1-1-1.48c.79-1.83,1.56-3.79,2.28-5.82a1,1,0,0,1,1.34-.65,1.07,1.07,0,0,1,.65,1.35c-.73,2.08-1.52,4.09-2.34,6A1.06,1.06,0,0,1,753.39,769.46Zm4.23-11.93a1,1,0,0,1-.29,0,1,1,0,0,1-.73-1.3c.56-2,1.09-4,1.57-6.08a1.05,1.05,0,0,1,1.27-.79,1.06,1.06,0,0,1,.79,1.27c-.49,2.09-1,4.17-1.6,6.18A1.06,1.06,0,0,1,757.62,757.53Zm2.87-12.34h-.19a1.07,1.07,0,0,1-.85-1.24q.57-3,1-6.2a1.06,1.06,0,0,1,1.2-.89,1,1,0,0,1,.89,1.2c-.32,2.15-.67,4.25-1.05,6.28A1.06,1.06,0,0,1,760.49,745.19Zm1.88-12.52h-.12a1.05,1.05,0,0,1-.93-1.17q.36-3.06.64-6.27a1.05,1.05,0,1,1,2.1.18q-.28,3.24-.64,6.34A1.07,1.07,0,0,1,762.37,732.67Zm1.11-12.62h-.07a1.07,1.07,0,0,1-1-1.12c.13-2.06.24-4.17.32-6.31a1.06,1.06,0,1,1,2.11.09q-.12,3.22-.32,6.35A1.05,1.05,0,0,1,763.48,720.05Zm.5-12.66h0a1.05,1.05,0,0,1-1-1.08q0-2.91.06-5.91v-.22A1.15,1.15,0,0,1,764,699a1,1,0,0,1,1.06,1v.41c0,2,0,4-.06,5.94A1.06,1.06,0,0,1,764,707.39Zm-.07-12.67a1.05,1.05,0,0,1-1.06-1q-.12-3.13-.35-6.3a1.07,1.07,0,0,1,1-1.13,1.11,1.11,0,0,1,1.13,1q.23,3.21.35,6.36a1.05,1.05,0,0,1-1,1.1ZM763,682.08a1.06,1.06,0,0,1-1-1q-.32-3.12-.74-6.26a1.05,1.05,0,1,1,2.09-.28c.28,2.11.54,4.22.75,6.32a1,1,0,0,1-.94,1.16Zm-1.66-12.57a1.07,1.07,0,0,1-1.05-.89c-.33-2.07-.68-4.15-1.07-6.23a1.06,1.06,0,1,1,2.08-.38c.38,2.09.74,4.19,1.08,6.28a1.05,1.05,0,0,1-.88,1.21ZM759,657a1,1,0,0,1-1-.84q-.64-3.11-1.35-6.18a1.06,1.06,0,0,1,2.06-.47q.7,3.11,1.36,6.22a1.06,1.06,0,0,1-.82,1.25Zm-2.83-12.36a1.06,1.06,0,0,1-1-.8c-.51-2-1-4.08-1.59-6.11a1.06,1.06,0,0,1,2-.55c.55,2,1.09,4.09,1.6,6.15a1.06,1.06,0,0,1-.77,1.28A1.07,1.07,0,0,1,756.2,644.67Zm-3.3-12.22a1.07,1.07,0,0,1-1-.76q-.89-3.06-1.8-6.06a1.05,1.05,0,1,1,2-.62q.93,3,1.82,6.09a1.06,1.06,0,0,1-.72,1.31A1.45,1.45,0,0,1,752.9,632.45Zm-3.73-12.12a1,1,0,0,1-1-.73q-1-3-2-6a1.06,1.06,0,1,1,2-.68q1,3,2,6a1.06,1.06,0,0,1-.68,1.33A1,1,0,0,1,749.17,620.33Zm-4.12-12a1.06,1.06,0,0,1-1-.7q-1.08-3-2.19-5.93a1.05,1.05,0,1,1,2-.75c.75,2,1.48,3.95,2.21,6a1.07,1.07,0,0,1-.63,1.36A1.13,1.13,0,0,1,745.05,608.34Zm-4.49-11.86a1.07,1.07,0,0,1-1-.66q-1.19-3-2.38-5.86a1.06,1.06,0,0,1,1.95-.81q1.2,2.88,2.4,5.89a1,1,0,0,1-1,1.44Zm-4.88-11.71a1,1,0,0,1-1-.63q-1.31-3-2.58-5.78a1.05,1.05,0,1,1,1.92-.87c.86,1.87,1.73,3.81,2.59,5.8a1.05,1.05,0,0,1-.55,1.39A1,1,0,0,1,735.68,584.77Zm-5.26-11.53a1.05,1.05,0,0,1-.95-.6c-1-2-1.89-3.87-2.8-5.67a1.05,1.05,0,1,1,1.88-1q1.38,2.72,2.82,5.7a1.06,1.06,0,0,1-.49,1.41A1.11,1.11,0,0,1,730.42,573.24Zm-5.75-11.3a1.08,1.08,0,0,1-.93-.55l-.27-.5a44.74,44.74,0,0,1-2.53-5.33,1.05,1.05,0,1,1,2-.77,44.9,44.9,0,0,0,2.32,4.91l.37.67a1.07,1.07,0,0,1-.92,1.57Zm5.66-10.39c-1.06,0-2.14,0-3.25-.07a1.06,1.06,0,0,1,.1-2.11,61.49,61.49,0,0,0,6.23,0,1,1,0,0,1,1.11,1,1.06,1.06,0,0,1-1,1.11C732.49,551.52,731.42,551.55,730.33,551.55Zm-9.51-.61h-.13c-2-.25-4.17-.57-6.32-1a1.05,1.05,0,0,1-.86-1.22,1.07,1.07,0,0,1,1.23-.86c1.45.27,2.89.49,4.29.69a23.42,23.42,0,0,1-.24-3.3,20.9,20.9,0,0,1,.17-2.64,1.06,1.06,0,0,1,2.1.28,16.6,16.6,0,0,0-.16,2.36,21.81,21.81,0,0,0,.32,3.62,1.06,1.06,0,0,1-.4,2Zm18.92-.26a1.06,1.06,0,0,1-.21-2.09,21.7,21.7,0,0,0,5.68-2,1.06,1.06,0,0,1,1.43.43,1.05,1.05,0,0,1-.43,1.43,23.89,23.89,0,0,1-6.24,2.18Zm-31.39-2-.24,0c-2-.47-4.1-1-6.18-1.57a1.06,1.06,0,0,1,.56-2q3.09.85,6.1,1.55a1.05,1.05,0,0,1-.24,2.08Zm-12.21-3.37a1.26,1.26,0,0,1-.33-.05q-3-1-6-2.06a1.06,1.06,0,0,1,.72-2q3,1.1,6,2a1.06,1.06,0,0,1,.68,1.33A1,1,0,0,1,696.14,545.35Zm54.18-1a1,1,0,0,1-.53-.15,1.06,1.06,0,0,1-.37-1.45,8.58,8.58,0,0,0,1-2.57,12.45,12.45,0,0,0,.28-2.51v-.43a1.06,1.06,0,0,1,2.11-.08v.51a13.89,13.89,0,0,1-.33,2.95,10.5,10.5,0,0,1-1.24,3.21A1,1,0,0,1,750.32,544.4ZM684.22,541a.91.91,0,0,1-.39-.08c-2-.79-3.92-1.63-5.87-2.5a1.05,1.05,0,0,1-.53-1.39,1.07,1.07,0,0,1,1.4-.54c1.92.87,3.85,1.69,5.79,2.48a1.05,1.05,0,0,1-.4,2ZM722,537.87a1,1,0,0,1-.52-.14,1.06,1.06,0,0,1-.4-1.43,17.46,17.46,0,0,1,4.37-5.08,1.06,1.06,0,0,1,1.48.16,1.07,1.07,0,0,1-.16,1.49,15.3,15.3,0,0,0-3.85,4.47A1,1,0,0,1,722,537.87Zm-49.33-2a1,1,0,0,1-.46-.11q-2.94-1.43-5.67-2.88a1,1,0,0,1-.44-1.43,1.06,1.06,0,0,1,1.43-.44q2.7,1.44,5.61,2.86a1,1,0,0,1,.48,1.41A1.06,1.06,0,0,1,672.65,535.86Zm76.78-3.31a1,1,0,0,1-.78-.34,10.58,10.58,0,0,0-4.9-2.88A1.07,1.07,0,0,1,743,528a1.05,1.05,0,0,1,1.31-.72,12.68,12.68,0,0,1,5.87,3.49,1.06,1.06,0,0,1-.07,1.49A1.07,1.07,0,0,1,749.43,532.55ZM731.59,530a1.06,1.06,0,0,1-.36-2,22.91,22.91,0,0,1,6.48-1.36,1,1,0,0,1,1.12,1,1.07,1.07,0,0,1-1,1.12A20.51,20.51,0,0,0,732,530,1.15,1.15,0,0,1,731.59,530Zm-70.12-.09a1,1,0,0,1-.53-.15q-2.84-1.65-5.45-3.3a1.06,1.06,0,0,1-.32-1.46,1.08,1.08,0,0,1,1.46-.33q2.57,1.63,5.37,3.27a1.05,1.05,0,0,1-.53,2Zm-10.67-6.81a1.07,1.07,0,0,1-.61-.19c-1.77-1.25-3.49-2.53-5.12-3.81a1.05,1.05,0,0,1,1.3-1.66c1.6,1.26,3.3,2.52,5,3.74a1,1,0,0,1,.25,1.47A1,1,0,0,1,650.8,523.12Zm-9.95-7.82a1,1,0,0,1-.7-.26c-1.63-1.44-3.2-2.92-4.66-4.38a1.06,1.06,0,0,1,0-1.5,1,1,0,0,1,1.49,0c1.43,1.43,3,2.88,4.56,4.29a1,1,0,0,1,.09,1.49A1.07,1.07,0,0,1,640.85,515.3Zm-8.91-9a1.06,1.06,0,0,1-.8-.37c-1.42-1.66-2.75-3.35-4-5a1.06,1.06,0,0,1,1.72-1.24c1.18,1.64,2.47,3.29,3.85,4.91a1.06,1.06,0,0,1-.11,1.49A1,1,0,0,1,631.94,506.32ZM624.58,496a1,1,0,0,1-.91-.53,56.65,56.65,0,0,1-2.94-5.74,1.06,1.06,0,0,1,1.94-.85,55.49,55.49,0,0,0,2.82,5.53,1.06,1.06,0,0,1-.38,1.45A1.13,1.13,0,0,1,624.58,496Zm-5-11.6a1,1,0,0,1-1-.77,26.36,26.36,0,0,1-1.14-6.52,1.06,1.06,0,0,1,1.05-1.06h0a1.05,1.05,0,0,1,1,1.06,25.11,25.11,0,0,0,1.06,6,1,1,0,0,1-.73,1.3A.9.9,0,0,1,619.56,484.44Z" />
            <path class="cls-9"
                d="M19.4,690.38a30,30,0,0,1,2.74-13.26,10.73,10.73,0,0,0-3.34,1.22c-4.88,2.82-7.68,9.48-7.68,18.28,0,17.1,10.4,37,23.18,44.39,5.37,3.1,10.52,3.55,14.49,1.25a11.87,11.87,0,0,0,3.31-2.88,20.71,20.71,0,0,1-8.51-2.87C30.25,728.81,19.4,708.11,19.4,690.38Z" />
            <path class="cls-8"
                d="M68.31,731.42c0-24.79-15.1-53.67-33.65-64.38a26.46,26.46,0,0,0-13.07-3.95,16.42,16.42,0,0,0-7.77,1.9l-.88.52C6,669.78,2,679.37,2,692c0,7.9,2.26,17.11,4.24,24.26,5,18.06,30.66,70.82,35.77,80.55,4.16-8.69,22.5-47,22.87-47.84C67.16,744.15,68.31,738.25,68.31,731.42ZM49.8,744a13,13,0,0,1-6.58,1.72,20.14,20.14,0,0,1-9.93-3C20,735.06,9.1,714.36,9.1,696.62c0-9.54,3.17-16.84,8.69-20,4.63-2.67,10.49-2.22,16.51,1.25,13.34,7.7,24.19,28.4,24.19,46.14C58.49,733.52,55.33,740.82,49.8,744Z" />
            <path class="cls-9"
                d="M46.89,659.85c-7.52-4.34-14.56-5.13-20.38-2.28l-6.05,3.54c4.74-.26,9.92,1.13,15.2,4.18,19.11,11,34.66,40.7,34.66,66.13,0,7.13-1.21,13.32-3.59,18.4-.37.77-17.19,36-22.29,46.61l9.12-5.36c1.9-4,23.17-48.44,23.57-49.3,2.26-4.81,3.4-10.71,3.4-17.54C80.53,699.44,65.44,670.56,46.89,659.85Z" />
            <path class="cls-11"
                d="M47.89,658.1c-8-4.62-15.92-5.46-22.33-2.31l-12.81,7.49c-.15.08-.3.13-.44.21s-.25.19-.38.27l-.62.36a1.11,1.11,0,0,0-.31.3C4,669.32,0,679.2,0,692c0,8.14,2.31,17.53,4.32,24.79,4.71,17,33.46,77.58,36.91,82.66a.08.08,0,0,1,0,0s.06,0,.09.09l.15.19.07,0a1,1,0,0,0,.56.2l.23,0a1.4,1.4,0,0,0,.17-.09.35.35,0,0,0,.11,0l12.23-7.19a1,1,0,0,0,.4-.43c1-2,23.29-48.7,23.71-49.59,2.38-5.09,3.59-11.28,3.59-18.4C82.55,698.8,67,669.14,47.89,658.1ZM42,796.8c-5.11-9.73-30.77-62.49-35.77-80.55C4.28,709.1,2,699.89,2,692c0-12.62,4-22.21,10.92-26.48l.88-.52a16.42,16.42,0,0,1,7.77-1.9A26.46,26.46,0,0,1,34.66,667c18.55,10.71,33.65,39.59,33.65,64.38,0,6.83-1.15,12.73-3.41,17.54C64.53,749.75,46.19,788.11,42,796.8Zm35.1-55c-.4.86-21.67,45.34-23.57,49.3l-9.12,5.36c5.1-10.65,21.92-45.84,22.29-46.61,2.38-5.08,3.59-11.27,3.59-18.4,0-25.43-15.55-55.09-34.66-66.13-5.28-3-10.46-4.44-15.2-4.18l6.05-3.54c5.82-2.85,12.86-2.06,20.38,2.28,18.55,10.71,33.64,39.59,33.64,64.38C80.53,731.06,79.39,737,77.13,741.77Z" />
            <path class="cls-11"
                d="M34.3,677.84c-6-3.47-11.88-3.92-16.51-1.25-5.52,3.19-8.69,10.49-8.69,20,0,17.74,10.85,38.44,24.19,46.14a20.14,20.14,0,0,0,9.93,3A13,13,0,0,0,49.8,744c5.53-3.19,8.69-10.49,8.69-20C58.49,706.24,47.64,685.54,34.3,677.84Zm14.49,64.42c-4,2.3-9.12,1.85-14.49-1.25-12.78-7.38-23.18-27.29-23.18-44.39,0-8.8,2.8-15.46,7.68-18.28a10.73,10.73,0,0,1,3.34-1.22,30,30,0,0,0-2.74,13.26c0,17.73,10.85,38.43,24.19,46.13a20.71,20.71,0,0,0,8.51,2.87A11.87,11.87,0,0,1,48.79,742.26Zm4.64-4.81a17.72,17.72,0,0,1-8.83-2.68c-12.79-7.38-23.19-27.3-23.19-44.39,0-5.42,1.09-10,3.1-13.48a18.15,18.15,0,0,1,8.78,2.69C46.08,687,56.48,706.88,56.48,724,56.48,729.42,55.4,734,53.43,737.45Z" />
            <path class="cls-1"
                d="M627.05,828.71c-3.29,5.45-12.34,9.39-23,9.39s-19.69-3.94-23-9.39V835c0,6.92,10.31,12.56,23,12.56s23-5.64,23-12.56Z" />
            <path class="cls-6" d="M590.05,812.85c.41-.17.84-.33,1.27-.48v-1.25A11.27,11.27,0,0,1,590.05,812.85Z" />
            <path class="cls-2"
                d="M604.06,811.63c-12.67,0-23,5.64-23,12.56s10.31,12.57,23,12.57,23-5.64,23-12.57S616.74,811.63,604.06,811.63Zm-12.72,17.69c-1.2,0-2.18-.55-2.18-1.22s1-1.22,2.18-1.22,2.19.54,2.19,1.22S592.55,829.32,591.34,829.32Z" />
            <path class="cls-2"
                d="M604.06,798.11c12.68,0,23-5.63,23-12.56S616.74,773,604.06,773s-23,5.64-23,12.57S591.39,798.11,604.06,798.11Zm-12.72-9.88c1.21,0,2.19.55,2.19,1.22s-1,1.23-2.19,1.23-2.18-.55-2.18-1.23S590.14,788.23,591.34,788.23Z" />
            <path class="cls-6" d="M625.77,791.79c.41-.17.84-.32,1.28-.48v-1.25A12.05,12.05,0,0,1,625.77,791.79Z" />
            <path class="cls-8" d="M615.46,811.92v-3.3a40.41,40.41,0,0,1-22.79,0v3.3a40.65,40.65,0,0,1,22.79,0Z" />
            <path class="cls-1"
                d="M639.79,861.34a40,40,0,0,1-11.4-1.63v9.67a38.12,38.12,0,0,0,11.4,1.69c12.67,0,23-5.64,23-12.57v-5.76l-.37-.21C658.84,857.68,650.05,861.34,639.79,861.34Z" />
            <path class="cls-6"
                d="M592.67,806.61v.62a40.44,40.44,0,0,0,22.79,0v-4.09a9.45,9.45,0,0,1,2.62-6.25,37.69,37.69,0,0,1-14,2.56c-10.64,0-19.69-3.93-23-9.39v4.72C588,797.24,592.67,801.61,592.67,806.61Z" />
            <path class="cls-1"
                d="M581.08,873v6.55c0,6.93,10.31,12.57,23,12.57s23-5.64,23-12.57V873c-3.29,5.45-12.34,9.39-23,9.39S584.37,878.46,581.08,873Z" />
            <path class="cls-2"
                d="M616.8,803.14c0,6.92,10.31,12.56,23,12.56s23-5.64,23-12.56-10.31-12.57-23-12.57a38.19,38.19,0,0,0-11.79,1.8l-.08,0C621.27,794.6,616.8,798.58,616.8,803.14Zm10.27,2.68c1.2,0,2.18.55,2.18,1.22s-1,1.22-2.18,1.22-2.19-.54-2.19-1.22S625.86,805.82,627.07,805.82Z" />
            <path class="cls-8"
                d="M662.77,818.45c-3.29,5.46-12.34,9.39-23,9.39a40,40,0,0,1-11.4-1.63v32.11a38.4,38.4,0,0,0,11.4,1.68c12.67,0,23-5.64,23-12.56Z" />
            <path class="cls-1"
                d="M662.77,807.65c-3.29,5.45-12.34,9.39-23,9.39s-19.7-3.94-23-9.39v4.72c6.94,2.45,11.59,6.83,11.59,11.82v.63a38.4,38.4,0,0,0,11.4,1.68c12.67,0,23-5.63,23-12.56Z" />
            <path class="cls-8"
                d="M627.05,858.87h0V839.51c-3.29,5.45-12.34,9.39-23,9.39s-19.69-3.94-23-9.39v29c0,6.93,10.31,12.57,23,12.57s23-5.64,23-12.57Z" />
            <path class="cls-1"
                d="M596.38,917.65l4.53-2.62v-7.14a.68.68,0,0,1,.33-.58l63.66-36.88.08,0,6.27-3.63a.69.69,0,0,1,.68,0,.68.68,0,0,1,.33.58v6.38l3.68-2V861.12l-79.56,45.94Z" />
            <path class="cls-6"
                d="M533.73,882l61.3,35.4V906.8l-61.3-35.4Zm31.71,10.2a.68.68,0,0,1,1-.58l22.28,12.86a.66.66,0,0,1,.33.58v6.28a.67.67,0,0,1-1,.58L565.78,899a.67.67,0,0,1-.34-.58ZM539.7,877.34a.68.68,0,0,1,1-.58L563,889.62a.67.67,0,0,1,.34.58v6.27a.68.68,0,0,1-.68.67.66.66,0,0,1-.33-.09L540,884.19a.67.67,0,0,1-.34-.58Z" />
            <polygon class="cls-7" points="561.98 890.59 541.04 878.5 541.04 883.22 561.98 895.31 561.98 890.59" />
            <polygon class="cls-7" points="587.72 905.44 566.78 893.35 566.78 898.07 587.72 910.16 587.72 905.44" />
            <path class="cls-2"
                d="M664.11,853.52v5c0,7.67-10.91,13.91-24.32,13.91a40,40,0,0,1-11.4-1.63v8.78c0,7.67-10.91,13.91-24.33,13.91s-24.32-6.24-24.32-13.91v-5.31a40,40,0,0,1-11.4,1.63c-11.93,0-21.86-4.94-23.91-11.42l-10,5.78,61.54,35.53L675.27,860Z" />
            <polygon class="cls-7" points="670.92 873.63 670.92 868.49 666.62 870.98 670.92 873.63" />
            <path class="cls-1"
                d="M568.34,874.54a38.12,38.12,0,0,0,11.4-1.69v-9.67a40,40,0,0,1-11.4,1.63c-10.65,0-19.69-3.93-23-9.39V862C545.36,868.9,555.67,874.54,568.34,874.54Z" />
            <path class="cls-2"
                d="M568.34,819.17c12.67,0,23-5.64,23-12.56,0-4.56-4.46-8.54-11.12-10.75l-.07,0a38.19,38.19,0,0,0-11.79-1.8c-12.67,0-23,5.64-23,12.57S555.67,819.17,568.34,819.17Zm-12.72-9.88c1.21,0,2.18.55,2.18,1.22s-1,1.22-2.18,1.22-2.18-.54-2.18-1.22S554.41,809.29,555.62,809.29Z" />
            <path class="cls-8"
                d="M568.34,863.47a38.4,38.4,0,0,0,11.4-1.68V829.68a40,40,0,0,1-11.4,1.63c-10.65,0-19.69-3.93-23-9.39v29C545.36,857.83,555.67,863.47,568.34,863.47Z" />
            <path class="cls-1"
                d="M568.34,830a38.4,38.4,0,0,0,11.4-1.68v-4.1a9.45,9.45,0,0,1,2.62-6.24,37.69,37.69,0,0,1-14,2.56c-10.65,0-19.69-3.93-23-9.39v6.29C545.36,824.34,555.67,830,568.34,830Z" />
            <path class="cls-11"
                d="M677.16,859.59a.69.69,0,0,0-.17-.17l0,0L664.11,852V803.14c0-7.67-10.91-13.91-24.32-13.91a39.23,39.23,0,0,0-11.4,1.63v-5.31c0-7.67-10.91-13.91-24.33-13.91s-24.32,6.24-24.32,13.91v8.78a39.23,39.23,0,0,0-11.4-1.63c-13.41,0-24.32,6.24-24.32,13.91V862a8.32,8.32,0,0,0,.09,1.12l-11.38,6.57-.05,0a.87.87,0,0,0-.16.17.18.18,0,0,0,0,.07.61.61,0,0,0-.08.3v12.14a.24.24,0,0,0,0,.08.68.68,0,0,0,0,.14l.06.11.07.11a.39.39,0,0,0,.1.08s0,.05.07.06l62.38,36a.67.67,0,0,0,.6.37l.13,0a.29.29,0,0,0,.1,0,.66.66,0,0,0,.33-.09l5.64-3.26s.05,0,.07-.06a.39.39,0,0,0,.1-.08l.07-.11.06-.11a.68.68,0,0,0,0-.14.24.24,0,0,0,0-.08v-7.15l63-36.53,5.94,3.67h0a.63.63,0,0,0,.31.09.57.57,0,0,0,.29-.08h0l5-2.73a.69.69,0,0,0,.35-.59V860a.62.62,0,0,0-.09-.3A.43.43,0,0,0,677.16,859.59ZM628,792.37a38.19,38.19,0,0,1,11.79-1.8c12.67,0,23,5.64,23,12.57s-10.31,12.56-23,12.56-23-5.64-23-12.56c0-4.56,4.47-8.54,11.12-10.74ZM639.79,860a38.4,38.4,0,0,1-11.4-1.68V826.21a40,40,0,0,0,11.4,1.63c10.64,0,19.69-3.93,23-9.39v29C662.77,854.36,652.46,860,639.79,860Zm23-7.26v5.76c0,6.93-10.31,12.57-23,12.57a38.12,38.12,0,0,1-11.4-1.69v-9.67a40,40,0,0,0,11.4,1.63c10.26,0,19.05-3.66,22.61-8.81Zm-23-26.24a38.4,38.4,0,0,1-11.4-1.68v-.63c0-5-4.65-9.37-11.59-11.82v-4.72c3.29,5.45,12.34,9.39,23,9.39s19.69-3.94,23-9.39v6.29C662.77,820.87,652.46,826.5,639.79,826.5Zm-35.73,54.56c-12.67,0-23-5.64-23-12.57v-29c3.29,5.45,12.34,9.39,23,9.39s19.7-3.94,23-9.39v19.36h0v9.62C627.05,875.42,616.74,881.06,604.06,881.06Zm23-8v6.55c0,6.93-10.31,12.57-23,12.57s-23-5.64-23-12.57V873c3.29,5.45,12.34,9.39,23,9.39S623.76,878.46,627.05,873Zm-23-25.45c-12.67,0-23-5.64-23-12.56v-6.29c3.29,5.45,12.34,9.39,23,9.39s19.7-3.94,23-9.39V835C627.05,841.92,616.74,847.56,604.06,847.56Zm0-10.8c-12.67,0-23-5.64-23-12.57s10.31-12.56,23-12.56,23,5.64,23,12.56S616.74,836.76,604.06,836.76Zm-14-23.91a11.27,11.27,0,0,0,1.27-1.73v1.25C590.89,812.52,590.46,812.68,590.05,812.85Zm2.62-.93v-3.3a40.41,40.41,0,0,0,22.79,0v3.3a40.65,40.65,0,0,0-22.79,0Zm33.1-20.13a12.05,12.05,0,0,0,1.28-1.73v1.25C626.61,791.47,626.18,791.62,625.77,791.79ZM604.06,773c12.68,0,23,5.64,23,12.57s-10.31,12.56-23,12.56-23-5.63-23-12.56S591.39,773,604.06,773Zm-23,17.08c3.29,5.46,12.34,9.39,23,9.39a37.69,37.69,0,0,0,14-2.56,9.45,9.45,0,0,0-2.62,6.25v4.09a40.44,40.44,0,0,1-22.79,0v-.62c0-5-4.65-9.37-11.59-11.83Zm-12.74,4a38.19,38.19,0,0,1,11.79,1.8l.07,0c6.66,2.21,11.12,6.19,11.12,10.75,0,6.92-10.31,12.56-23,12.56s-23-5.64-23-12.56S555.67,794,568.34,794Zm-23,17.08c3.29,5.46,12.33,9.39,23,9.39a37.69,37.69,0,0,0,14-2.56,9.45,9.45,0,0,0-2.62,6.24v4.1a38.4,38.4,0,0,1-11.4,1.68c-12.67,0-23-5.63-23-12.56Zm0,10.8c3.29,5.46,12.33,9.39,23,9.39a40,40,0,0,0,11.4-1.63v32.11a38.4,38.4,0,0,1-11.4,1.68c-12.67,0-23-5.64-23-12.56Zm0,33.5c3.29,5.46,12.33,9.39,23,9.39a40,40,0,0,0,11.4-1.63v9.67a38.12,38.12,0,0,1-11.4,1.69c-12.67,0-23-5.64-23-12.57Zm49.67,62L533.73,882V871.4L595,906.8Zm.91-11.62L534.4,870.24l10-5.78c2.05,6.48,12,11.42,23.91,11.42a40,40,0,0,0,11.4-1.63v5.31c0,7.67,10.91,13.91,24.32,13.91s24.33-6.24,24.33-13.91v-8.78a40,40,0,0,0,11.4,1.63c13.41,0,24.32-6.24,24.32-13.91v-5L675.27,860Zm75-32.14-4.3-2.65,4.3-2.49Zm5-1.93-3.68,2v-6.38a.68.68,0,0,0-.33-.58.69.69,0,0,0-.68,0L665,870.38l-.08,0-63.66,36.88a.68.68,0,0,0-.33.58V915l-4.53,2.62V907.06l79.56-45.94Z" />
            <path class="cls-11"
                d="M562.32,897.05a.66.66,0,0,0,.33.09.68.68,0,0,0,.68-.67V890.2a.67.67,0,0,0-.34-.58l-22.28-12.86a.68.68,0,0,0-1,.58v6.27a.67.67,0,0,0,.34.58ZM541,878.5,562,890.59v4.72L541,883.22Z" />
            <path class="cls-11"
                d="M588.06,911.91a.66.66,0,0,0,.33.09.66.66,0,0,0,.67-.67v-6.28a.66.66,0,0,0-.33-.58l-22.28-12.86a.68.68,0,0,0-1,.58v6.27a.67.67,0,0,0,.34.58Zm-21.28-18.56,20.94,12.09v4.72l-20.94-12.09Z" />
            <path class="cls-6"
                d="M589.06,806.35c0,5.92-9.25,10.73-20.67,10.73s-20.67-4.81-20.67-10.73,9.26-10.73,20.67-10.73S589.06,800.42,589.06,806.35Z" />
            <path class="cls-11"
                d="M568.39,817.75c-12,0-21.34-5-21.34-11.4s9.38-11.4,21.34-11.4,21.35,5,21.35,11.4S580.36,817.75,568.39,817.75Zm0-21.46c-11,0-20,4.51-20,10.06s9,10,20,10,20-4.51,20-10S579.42,796.29,568.39,796.29Z" />
            <path class="cls-6"
                d="M660.46,803.14c0,5.92-9.26,10.72-20.67,10.72s-20.67-4.8-20.67-10.72,9.25-10.73,20.67-10.73S660.46,797.21,660.46,803.14Z" />
            <path class="cls-11"
                d="M639.79,814.53c-12,0-21.34-5-21.34-11.39s9.37-11.4,21.34-11.4,21.34,5,21.34,11.4S651.75,814.53,639.79,814.53Zm0-21.45c-11,0-20,4.51-20,10.06s9,10.05,20,10.05,20-4.51,20-10.05S650.81,793.08,639.79,793.08Z" />
            <path class="cls-6"
                d="M624.73,785.55c0,5.92-9.25,10.73-20.67,10.73s-20.67-4.81-20.67-10.73,9.26-10.73,20.67-10.73S624.73,779.62,624.73,785.55Z" />
            <path class="cls-11"
                d="M604.06,797c-12,0-21.34-5-21.34-11.4s9.38-11.4,21.34-11.4,21.34,5,21.34,11.4S616,797,604.06,797Zm0-21.46c-11,0-20,4.51-20,10.06s9,10.06,20,10.06,20-4.51,20-10.06S615.09,775.49,604.06,775.49Z" />
            <ellipse class="cls-6" cx="604.06" cy="824.19" rx="20.67" ry="10.73" />
            <path class="cls-11"
                d="M604.06,835.59c-12,0-21.34-5-21.34-11.4s9.38-11.39,21.34-11.39,21.34,5,21.34,11.39S616,835.59,604.06,835.59Zm0-21.45c-11,0-20,4.51-20,10.05s9,10.06,20,10.06,20-4.51,20-10.06S615.09,814.14,604.06,814.14Z" />
            <path class="cls-11"
                d="M591.34,790.68c1.21,0,2.19-.55,2.19-1.23s-1-1.22-2.19-1.22-2.18.55-2.18,1.22S590.14,790.68,591.34,790.68Z" />
            <path class="cls-11"
                d="M627.07,808.26c1.2,0,2.18-.54,2.18-1.22s-1-1.22-2.18-1.22-2.19.55-2.19,1.22S625.86,808.26,627.07,808.26Z" />
            <path class="cls-11"
                d="M555.62,811.73c1.21,0,2.18-.54,2.18-1.22s-1-1.22-2.18-1.22-2.18.55-2.18,1.22S554.41,811.73,555.62,811.73Z" />
            <path class="cls-11"
                d="M591.34,826.88c-1.2,0-2.18.54-2.18,1.22s1,1.22,2.18,1.22,2.19-.55,2.19-1.22S592.55,826.88,591.34,826.88Z" />
            <path class="cls-12"
                d="M485.06,916.75v35.67l34.19-19.87V896.88l-12.94,7.53v7.19a.67.67,0,0,1-.34.58l-6.49,3.75a.63.63,0,0,1-.33.09.66.66,0,0,1-.67-.67V909Zm15.81,8.53a.68.68,0,0,1,1,.58v10.86a.67.67,0,0,1-.34.58l-12.77,7.37a.63.63,0,0,1-.33.09.69.69,0,0,1-.34-.09.67.67,0,0,1-.33-.58V933.23a.68.68,0,0,1,.33-.58Z" />
            <polygon class="cls-2" points="500.54 927.02 489.11 933.62 489.11 942.93 500.54 936.34 500.54 927.02" />
            <path class="cls-13"
                d="M520.29,895.18a.65.65,0,0,1,.17.16.35.35,0,0,1,0,.08.61.61,0,0,1,.08.3h0v33.17l2.58,1.49V894.72L468.23,863v2.1l52,30Z" />
            <polygon class="cls-4" points="432.9 919.15 438.74 922.52 438.74 909.5 432.9 906.13 432.9 919.15" />
            <polygon class="cls-14" points="497.91 907.74 442.97 876.02 429.45 883.87 484.39 915.59 497.91 907.74" />
            <path class="cls-14" d="M518.58,895.72l-51.17-29.54a.65.65,0,0,1-.34-.2l-3.43-2L451,871.37l54.94,31.72Z" />
            <polygon class="cls-15" points="504.57 903.86 449.63 872.14 444.3 875.24 499.24 906.96 504.57 903.86" />
            <polygon class="cls-5" points="499.82 908.18 499.82 914.18 504.97 911.21 504.97 905.19 499.82 908.18" />
            <path class="cls-12"
                d="M524.51,894.72v35.66l34.19-19.87V874.85l-13,7.52v7.19a.66.66,0,0,1-.33.58l-6.49,3.75a.66.66,0,0,1-.33.09.66.66,0,0,1-.67-.67v-6.39Zm15.81,8.52a.68.68,0,0,1,1,.58v10.86a.67.67,0,0,1-.34.58l-12.77,7.38a.66.66,0,0,1-.33.09.66.66,0,0,1-.67-.67V911.19a.66.66,0,0,1,.33-.58Z" />
            <polygon class="cls-5" points="539.27 886.14 539.27 892.15 544.41 889.17 544.41 883.15 539.27 886.14" />
            <polygon class="cls-14" points="537.35 885.7 482.41 853.98 468.9 861.83 523.84 893.55 537.35 885.7" />
            <polygon class="cls-2" points="539.98 904.98 528.56 911.58 528.56 920.89 539.98 914.3 539.98 904.98" />
            <polygon class="cls-15" points="544.02 881.83 489.08 850.1 483.75 853.2 538.69 884.92 544.02 881.83" />
            <polygon class="cls-14" points="558.03 873.68 503.09 841.96 490.42 849.33 545.36 881.05 558.03 873.68" />
            <path class="cls-6"
                d="M422.35,933.58,483.66,969V958.38L422.35,923Zm31.71,10.2a.68.68,0,0,1,.34-.59.67.67,0,0,1,.67,0l22.28,12.87a.67.67,0,0,1,.34.58v6.27a.67.67,0,0,1-.34.58.66.66,0,0,1-.33.09.67.67,0,0,1-.34-.09L454.4,950.63a.67.67,0,0,1-.34-.58Zm-25.74-14.86a.68.68,0,0,1,1-.58l22.28,12.87a.67.67,0,0,1,.34.58v6.27a.67.67,0,0,1-.34.58.66.66,0,0,1-.33.09.69.69,0,0,1-.34-.09l-22.28-12.86a.68.68,0,0,1-.34-.59Z" />
            <path class="cls-2"
                d="M560,909.32v1.58s0,.05,0,.08a.31.31,0,0,1,0,.13.37.37,0,0,1,0,.11.41.41,0,0,1-.07.11.81.81,0,0,1-.1.09l-.07.06-35.52,20.64h0a.69.69,0,0,1-.31.09.62.62,0,0,1-.3-.09h0l-2.92-1.69v2.49a.19.19,0,0,1,0,.08.59.59,0,0,1,0,.14l-.06.11a.41.41,0,0,1-.07.11l-.1.09-.06,0-35.53,20.65h0a.62.62,0,0,1-.31.08.61.61,0,0,1-.3-.08h0l-56.28-32.49s0,0-.06,0a.52.52,0,0,1-.11-.1l-.07-.1a.43.43,0,0,1-.05-.12.5.5,0,0,1,0-.13s0,0,0-.08v-1.81L423,921.83l61.54,35.52,79.34-45.8Z" />
            <path class="cls-1"
                d="M485,969.24l4.53-2.62v-7.15a.67.67,0,0,1,.34-.58L553.52,922l.09,0,6.27-3.64a.67.67,0,0,1,.67,0,.7.7,0,0,1,.33.59v6.37l3.69-2V912.71L485,958.65Z" />
            <polygon class="cls-7" points="450.61 942.17 429.67 930.08 429.67 934.81 450.61 946.9 450.61 942.17" />
            <polygon class="cls-7" points="559.54 925.22 559.54 920.08 555.25 922.57 559.54 925.22" />
            <path class="cls-13"
                d="M483.72,916.75,428.79,885V920.7l54.93,31.72Zm-43.64,6.94a.66.66,0,0,1-.67.67.63.63,0,0,1-.33-.09l-7.19-4.15a.68.68,0,0,1-.33-.58V905a.68.68,0,0,1,.33-.58.67.67,0,0,1,.67,0l7.19,4.15a.67.67,0,0,1,.33.58Zm11.63,6.63a.68.68,0,0,1-.34.58.66.66,0,0,1-.33.09.69.69,0,0,1-.34-.09l-7.18-4.15a.67.67,0,0,1-.34-.58V911.6a.68.68,0,0,1,1-.58l7.18,4.15a.66.66,0,0,1,.34.58Z" />
            <polygon class="cls-7" points="476.35 957.03 455.4 944.94 455.4 949.66 476.35 961.75 476.35 957.03" />
            <polygon class="cls-4" points="444.53 925.78 450.37 929.15 450.37 916.13 444.53 912.76 444.53 925.78" />
            <path class="cls-11"
                d="M565.78,911.17a.65.65,0,0,0-.17-.16l0,0-5.53-3.2V873.68h0a.74.74,0,0,0-.08-.3.35.35,0,0,1-.05-.08.87.87,0,0,0-.17-.16l0,0-56.28-32.49a.67.67,0,0,0-.67,0l-35.53,20.65,0,0a.61.61,0,0,0-.16.16l0,.07a.68.68,0,0,0-.08.31v2.49L464,862.65a.66.66,0,0,0-.68,0l-35.52,20.64,0,0a.69.69,0,0,0-.17.17l-.05.07a.74.74,0,0,0-.08.3v33.86l-6.09,3.52,0,0a.65.65,0,0,0-.17.16.18.18,0,0,1-.05.07.84.84,0,0,0-.08.31V934s0,.06,0,.09a.64.64,0,0,0,.15.35l.11.09.06.06,62.39,36a.67.67,0,0,0,.59.38l.13,0s.06,0,.1,0a.66.66,0,0,0,.33-.09l5.65-3.26.06-.06a.43.43,0,0,0,.1-.09.61.61,0,0,0,.07-.1l.06-.12,0-.13s0-.05,0-.08v-7.15l63.06-36.53,5.93,3.66h0a.6.6,0,0,0,.6,0h0l5-2.74a.67.67,0,0,0,.35-.58V911.55a.84.84,0,0,0-.08-.31Zm-27.52-17.28a.67.67,0,0,0,.34.09.66.66,0,0,0,.33-.09l6.49-3.75a.66.66,0,0,0,.33-.58v-7.19l13-7.52v35.66l-34.19,19.87V894.72l13.42-7.8v6.39A.66.66,0,0,0,538.26,893.89Zm1-1.74v-6l5.14-3v6ZM503.09,842,558,873.68l-12.67,7.37-54.94-31.72Zm-14,8.14L544,881.82l-5.33,3.1L483.75,853.2ZM482.41,854l54.94,31.72-13.51,7.85L468.9,861.83Zm-14.18,9,54.94,31.72v35.66l-2.58-1.49V895.72h0a.61.61,0,0,0-.08-.3.35.35,0,0,0,0-.08.65.65,0,0,0-.17-.16l0,0-52-30Zm30.58,52.93a.69.69,0,0,0,.34.09.63.63,0,0,0,.33-.09l6.49-3.75a.67.67,0,0,0,.34-.58v-7.19l12.94-7.53v35.67l-34.19,19.87V916.75L498.48,909v6.39A.69.69,0,0,0,498.81,915.93Zm1-1.75v-6l5.15-3v6ZM463.64,864l3.43,2a.65.65,0,0,0,.34.2l51.17,29.54-12.67,7.37L451,871.37Zm-14,8.14,54.94,31.72-5.33,3.1L444.3,875.24ZM443,876l54.94,31.72-13.52,7.85-54.94-31.72Zm-14.18,9,54.93,31.71v35.67L428.79,920.7ZM483.66,969l-61.31-35.39V923l61.31,35.39Zm.9-11.62L423,921.83l4.42-2.55v1.81s0,0,0,.08a.5.5,0,0,0,0,.13.43.43,0,0,0,.05.12l.07.1a.52.52,0,0,0,.11.1s0,0,.06,0l56.28,32.49h0a.61.61,0,0,0,.3.08.62.62,0,0,0,.31-.08h0l35.53-20.65.06,0,.1-.09a.41.41,0,0,0,.07-.11l.06-.11a.59.59,0,0,0,0-.14.19.19,0,0,0,0-.08v-2.49l2.92,1.69h0a.62.62,0,0,0,.3.09.69.69,0,0,0,.31-.09h0l35.52-20.64.07-.06a.81.81,0,0,0,.1-.09.41.41,0,0,0,.07-.11.37.37,0,0,0,0-.11.31.31,0,0,0,0-.13s0-.06,0-.08v-1.58l3.86,2.23Zm75-32.13-4.29-2.65,4.29-2.49Zm5-1.93-3.69,2v-6.37a.7.7,0,0,0-.33-.59.67.67,0,0,0-.67,0L553.61,922l-.09,0-63.65,36.87a.67.67,0,0,0-.34.58v7.15L485,969.24V958.65l79.57-45.94Z" />
            <path class="cls-11"
                d="M487.77,933.23v10.86a.67.67,0,0,0,.33.58.69.69,0,0,0,.34.09.63.63,0,0,0,.33-.09l12.77-7.37a.67.67,0,0,0,.34-.58V925.86a.68.68,0,0,0-1-.58l-12.77,7.37A.68.68,0,0,0,487.77,933.23Zm1.34.39,11.43-6.6v9.32l-11.43,6.59Z" />
            <path class="cls-11"
                d="M439.75,908.54l-7.19-4.15a.67.67,0,0,0-.67,0,.68.68,0,0,0-.33.58v14.57a.68.68,0,0,0,.33.58l7.19,4.15a.63.63,0,0,0,.33.09.66.66,0,0,0,.67-.67V909.12A.67.67,0,0,0,439.75,908.54Zm-1,14-5.84-3.37v-13l5.84,3.37Z" />
            <path class="cls-11"
                d="M451.37,915.17,444.19,911a.68.68,0,0,0-1,.58v14.57a.67.67,0,0,0,.34.58l7.18,4.15a.69.69,0,0,0,.34.09.66.66,0,0,0,.33-.09.68.68,0,0,0,.34-.58V915.75A.66.66,0,0,0,451.37,915.17Zm-1,14-5.84-3.37v-13l5.84,3.37Z" />
            <path class="cls-11"
                d="M527.22,911.19v10.87a.67.67,0,0,0,1,.58L541,915.26a.67.67,0,0,0,.34-.58V903.82a.68.68,0,0,0-1-.58l-12.77,7.37A.66.66,0,0,0,527.22,911.19Zm1.34.39L540,905v9.32l-11.42,6.59Z" />
            <path class="cls-11"
                d="M428.66,935.78l22.28,12.86a.69.69,0,0,0,.34.09.66.66,0,0,0,.33-.09.67.67,0,0,0,.34-.58v-6.27a.67.67,0,0,0-.34-.58l-22.28-12.87a.68.68,0,0,0-1,.58v6.27A.68.68,0,0,0,428.66,935.78Zm1-5.7,20.95,12.09v4.73l-20.95-12.09Z" />
            <path class="cls-11"
                d="M454.4,950.63l22.28,12.86a.67.67,0,0,0,.34.09.66.66,0,0,0,.33-.09.67.67,0,0,0,.34-.58v-6.27a.67.67,0,0,0-.34-.58l-22.28-12.87a.67.67,0,0,0-.67,0,.68.68,0,0,0-.34.59v6.27A.67.67,0,0,0,454.4,950.63Zm1-5.69,21,12.09v4.72l-21-12.09Z" />
            <path class="cls-9"
                d="M719.34,469.73a21.64,21.64,0,0,1,2-9.54,7.6,7.6,0,0,0-2.4.87c-3.51,2-5.53,6.83-5.53,13.16,0,12.3,7.49,26.63,16.68,31.94,3.86,2.23,7.57,2.55,10.43.9a8.64,8.64,0,0,0,2.38-2.07,14.88,14.88,0,0,1-6.12-2.07C727.15,497.38,719.34,482.49,719.34,469.73Z" />
            <path class="cls-8"
                d="M754.53,499.26c0-17.84-10.86-38.62-24.21-46.32a19.05,19.05,0,0,0-9.41-2.85,11.76,11.76,0,0,0-5.58,1.37l-.63.37c-5,3.07-7.87,10-7.87,19.05,0,5.69,1.64,12.32,3.06,17.46,3.6,13,22.06,51,25.74,58l16.45-34.42A29.59,29.59,0,0,0,754.53,499.26Zm-13.31,9.05a9.37,9.37,0,0,1-4.74,1.24,14.34,14.34,0,0,1-7.14-2.14c-9.6-5.54-17.41-20.43-17.41-33.19,0-6.86,2.28-12.12,6.25-14.41,3.33-1.92,7.55-1.6,11.88.9,9.6,5.54,17.41,20.43,17.41,33.19C747.47,500.77,745.19,506,741.22,508.31Z" />
            <path class="cls-9"
                d="M739.12,447.76c-5.41-3.12-10.48-3.69-14.66-1.64l-4.35,2.55a19.9,19.9,0,0,1,10.93,3C744.79,459.62,756,481,756,499.26a31,31,0,0,1-2.59,13.23c-.26.56-12.36,25.88-16,33.54l6.56-3.85c1.37-2.86,16.67-34.86,17-35.48a29.69,29.69,0,0,0,2.45-12.61C763.33,476.25,752.47,455.47,739.12,447.76Z" />
            <path class="cls-11"
                d="M739.84,446.51c-5.76-3.33-11.46-3.93-16.07-1.67l-9.21,5.39c-.11.06-.22.09-.32.15s-.18.14-.27.2l-.45.26a.77.77,0,0,0-.23.21c-5,3.52-7.91,10.63-7.91,19.83,0,5.86,1.66,12.62,3.11,17.85,3.39,12.26,24.07,55.81,26.56,59.47a0,0,0,0,0,0,0s0,0,.06.06l.11.14h0a.68.68,0,0,0,.4.15l.16,0a.52.52,0,0,0,.13-.06l.08,0,8.8-5.17a.81.81,0,0,0,.29-.32c.68-1.43,16.75-35,17.05-35.68a31,31,0,0,0,2.59-13.23C764.78,475.79,753.59,454.44,739.84,446.51Zm-4.21,99.79c-3.68-7-22.14-45-25.74-58-1.42-5.14-3.06-11.77-3.06-17.46,0-9.07,2.87-16,7.87-19.05l.63-.37a11.76,11.76,0,0,1,5.58-1.37,19.05,19.05,0,0,1,9.41,2.85c13.35,7.7,24.21,28.48,24.21,46.32a29.59,29.59,0,0,1-2.45,12.62Zm25.25-39.6c-.29.62-15.59,32.62-17,35.48L737.36,546c3.67-7.66,15.77-33,16-33.54A31,31,0,0,0,756,499.26c0-18.3-11.19-39.64-24.94-47.58a19.9,19.9,0,0,0-10.93-3l4.35-2.55c4.18-2.05,9.25-1.48,14.66,1.64,13.35,7.71,24.21,28.49,24.21,46.33A29.69,29.69,0,0,1,760.88,506.7Z" />
            <path class="cls-11"
                d="M730.06,460.71c-4.33-2.5-8.55-2.82-11.88-.9-4,2.29-6.25,7.55-6.25,14.41,0,12.76,7.81,27.65,17.41,33.19a14.34,14.34,0,0,0,7.14,2.14,9.37,9.37,0,0,0,4.74-1.24c4-2.29,6.25-7.54,6.25-14.41C747.47,481.14,739.66,466.25,730.06,460.71Zm10.43,46.35c-2.86,1.65-6.57,1.33-10.43-.9-9.19-5.31-16.68-19.64-16.68-31.94,0-6.33,2-11.13,5.53-13.16a7.6,7.6,0,0,1,2.4-.87,21.64,21.64,0,0,0-2,9.54c0,12.76,7.81,27.65,17.41,33.19a14.88,14.88,0,0,0,6.12,2.07A8.64,8.64,0,0,1,740.49,507.06Zm3.33-3.47a12.75,12.75,0,0,1-6.35-1.92c-9.2-5.32-16.68-19.64-16.68-31.94A19.25,19.25,0,0,1,723,460a13.09,13.09,0,0,1,6.32,1.93c9.2,5.31,16.68,19.64,16.68,31.94A19.43,19.43,0,0,1,743.82,503.59Z" />
        </g>
    </g>
</svg>