<svg width="100" height="100" viewBox="0 0 100 100" fill="none" xmlns="http://www.w3.org/2000/svg">
<path d="M87.5 54.1667V33.3333C87.5 31.1232 86.622 29.0036 85.0592 27.4408C83.4964 25.878 81.3768 25 79.1667 25H20.8333C18.6232 25 16.5036 25.878 14.9408 27.4408C13.378 29.0036 12.5 31.1232 12.5 33.3333V58.3333C12.5 60.5435 13.378 62.6631 14.9408 64.2259C16.5036 65.7887 18.6232 66.6667 20.8333 66.6667H50M60.4167 77.0833L68.75 85.4167L85.4167 68.75M50 45.875L50.0417 45.8292M66.6667 45.875L66.7083 45.8292M33.3333 45.875L33.375 45.8292" stroke="#0058DB" stroke-width="6" stroke-linecap="round" stroke-linejoin="round"/>
</svg>
